<?xml version="1.0" encoding="UTF-8"?>
<svg width="100%" height="100%" viewBox="0 0 679 494" version="1.1" xmlns="http://www.w3.org/2000/svg" xmlns:xlink="http://www.w3.org/1999/xlink">
    <!-- Generator: Sketch 52.4 (67378) - http://www.bohemiancoding.com/sketch -->
    <title>Artboard Copy 4</title>
    <desc>Created with Sketch.</desc>
    <g id="Artboard-Copy-4" stroke="none" stroke-width="1" fill="none" fill-rule="evenodd">
        <rect fill="#FFFFFF" x="0" y="0" width="679" height="494"></rect>
        <g id="undraw_QA_engineers_dg5p">
            <path d="M658.6511,389.098185 C642.055639,423.316768 608.339861,446.197832 573.411914,461.287472 C545.446782,473.289016 515.886155,481.170944 485.654667,484.686715 C479.864584,485.37346 474.055756,485.906206 468.228183,486.284956 C453.337086,487.254733 438.398055,487.238048 423.509164,486.235011 C414.553281,485.639833 405.628638,484.688796 396.735237,483.381902 C365.833663,478.877482 335.706805,470.111838 307.215972,457.335572 C298.993221,453.635478 290.937091,449.596175 283.047583,445.217661 C269.870091,437.919835 257.244066,429.669413 245.270415,420.532333 C242.62114,418.50956 240.005189,416.443085 237.422562,414.332907 L236.360352,413.465113 C234.329658,411.791954 232.317708,410.081337 230.274517,408.420665 C226.878401,405.578187 223.273411,402.994589 219.489966,400.691673 C219.233786,400.541838 218.977607,400.392003 218.715178,400.248411 C218.01537,399.842608 217.303065,399.461777 216.578263,399.099675 C215.085111,398.347559 213.554353,397.672416 211.992017,397.076902 C204.775241,394.329926 197.046105,393.331025 189.210748,393.49959 C187.911104,393.49959 186.611459,393.586994 185.305566,393.674397 C183.481065,393.79926 181.650316,393.986554 179.825815,394.223793 L179.151,394.317439 C173.337067,395.139494 167.5888,396.372483 161.949455,398.007128 C153.239337,400.504379 144.685427,403.625943 136.075282,406.441594 C132.420031,407.646517 128.758533,408.795253 125.065793,409.825369 L124.253515,410.050122 C119.001517,411.526197 113.65526,412.644208 108.251642,413.396438 C95.9721927,414.964978 83.5003916,413.961425 71.6304081,410.449682 L71.2180209,410.331062 L70.4557294,410.10631 L69.4122648,409.781667 C67.6627433,409.232272 65.9278012,408.630851 64.2074384,407.977403 L63.1639738,407.577843 C61.4977628,406.936882 59.8669589,406.248057 58.2715619,405.511368 L57.2280973,405.03689 C55.5618864,404.262742 53.9310824,403.444892 52.3356855,402.583341 C51.7608427,402.283671 51.1922482,401.959028 50.629902,401.653115 C48.9303669,400.704159 47.2641559,399.709421 45.6312692,398.6689 C43.8984098,397.565947 42.2030402,396.41513 40.5451603,395.21645 C39.7787033,394.667055 39.0205773,394.103092 38.2707824,393.524562 C33.9485023,390.221283 29.9009679,386.573787 26.1678427,382.617818 C25.9616491,382.411795 25.7679521,382.199528 25.5742551,381.993505 C24.5807768,380.919687 23.6060434,379.82714 22.6625515,378.70962 C22.3126472,378.297573 21.9627429,377.885527 21.6190869,377.460994 C20.49856,376.09583 19.4176057,374.699451 18.3762238,373.271855 C18.2200166,373.065832 18.0700576,372.853566 17.9200986,372.647543 C13.650876,366.748276 10.1115448,360.354654 7.37923168,353.606003 C7.2917556,353.399979 7.21052782,353.187713 7.13554833,352.98169 C6.30244286,350.838216 5.54223412,348.659364 4.85492211,346.445135 C4.57374902,345.521152 4.3050725,344.572197 4.06763744,343.648214 C3.98640966,343.373516 3.91143017,343.092575 3.84269897,342.817878 C0.393642333,329.251561 0,315.148335 0,301.12627 C0,299.49057 0,297.856952 0,296.225414 C0.0999726561,273.544131 0.449876952,250.475773 3.79896093,228.106646 C3.79896093,227.950568 3.84269897,227.79449 3.86769213,227.644655 C4.98861116,220.114068 6.51330505,212.649033 8.43519286,205.281771 C10.4466365,197.551504 13.0172796,189.977399 16.1268391,182.619216 C23.8309819,164.514146 35.0341677,148.038531 47.4745151,132.76784 C62.4704135,114.394315 79.6532137,97.4379797 98.7917291,83.4471301 C101.540977,81.4368429 104.327715,79.4848249 107.151942,77.5910761 L108.457835,76.7357676 C108.913961,76.4298544 109.370086,76.1114548 109.826211,75.8430003 C110.763455,75.2186876 111.700698,74.6318335 112.650439,74.0387364 L113.712648,73.3769648 L115.737094,72.1283393 L116.361923,71.772481 L117.442878,71.1481682 L118.511335,70.5238554 C119.760994,69.7871663 121.025231,69.0671256 122.304048,68.3637332 C127.765054,65.3212488 133.355192,62.5409759 139.074461,60.0229143 C140.7615,59.2779011 142.458952,58.5599413 144.166818,57.8690352 C151.920653,54.713676 159.885823,52.1039268 168.004049,50.0588822 C171.003228,49.3013827 174.021153,48.6354491 177.057822,48.0610813 C180.640176,47.3701752 184.241274,46.7978884 187.861117,46.3442211 C193.621403,45.6200628 199.414785,45.1887312 205.21887,45.0518937 C246.032707,44.0592363 287.258931,57.3321262 319.243932,82.7728723 C331.990446,92.911712 343.443563,104.917247 357.758398,112.689941 C370.25498,119.457492 384.882229,122.260656 398.266069,116.935268 C409.325544,112.533863 416.523575,110.348768 428.945177,111.016783 C454.648554,112.46343 479.988812,117.758368 504.118367,126.724493 C505.0931,127.080351 506.067833,127.448695 507.036318,127.81704 C569.962857,151.884298 624.066809,199.675442 652.171622,261.089091 C652.913086,262.712304 653.635805,264.348003 654.339779,265.996189 C671.103944,305.109385 677.152289,350.96516 658.6511,389.098185 Z" id="Path" fill="#6C63FF" opacity="0.1"></path>
            <path d="M125,172.855312 L125,409.70721 L124.188149,409.932093 C118.938915,411.409026 113.59547,412.527686 108.194694,413.280353 C95.9217051,414.849804 83.4564649,413.845668 71.5927258,410.331886 L71.1805556,410.213197 L70.4186651,409.988314 L69.3757494,409.663483 C67.6271483,409.113769 65.8931188,408.511998 64.1736611,407.858171 L63.1307454,407.458379 C61.465411,406.817046 59.835465,406.127821 58.2409073,405.390704 L57.1979916,404.91595 C55.5326572,404.141353 53.9027112,403.323028 52.3081535,402.460976 C51.7336131,402.161132 51.1653177,401.836301 50.6032674,401.53021 C48.9046263,400.580704 47.2392919,399.585388 45.6072642,398.544262 C43.8753164,397.440669 42.1808387,396.289184 40.5238309,395.089808 C39.7577771,394.540093 39.00005,393.975803 38.2506495,393.396937 C33.9306432,390.09174 29.885238,386.442126 26.1540767,382.483859 C25.9479916,382.277716 25.7543965,382.065327 25.5608014,381.859184 C24.5678457,380.784742 23.5936251,379.691561 22.6506295,378.573392 C22.3009093,378.161106 21.951189,377.74882 21.6077138,377.324041 C20.4877764,375.958084 19.4073908,374.560894 18.3665568,373.13247 C18.2104317,372.926327 18.0605516,372.713937 17.9106715,372.507794 C13.6436947,366.605102 10.1062255,360.207767 7.37534972,353.455197 C7.28791966,353.249054 7.20673461,353.036664 7.13179456,352.830521 C6.29912736,350.685803 5.53931855,348.505686 4.85236811,346.290171 C4.57134293,345.365651 4.30280775,344.416145 4.0654976,343.491625 C3.98431255,343.216768 3.9093725,342.935664 3.84067746,342.660807 C0.393435252,329.086612 0,314.975196 0,300.944988 C0,299.308339 0,297.673772 0,296.041287 C0.0999200639,273.346832 0.449640288,250.265079 3.79696243,227.882962 C3.79696243,227.726793 3.84067746,227.570624 3.86565747,227.420702 C4.98598683,219.885743 6.50987863,212.416373 8.4307554,205.044832 L72.2047362,205.044832 L72.2047362,172.855312 L84.9195643,172.855312 L84.9195643,147 L112.285172,147 L112.285172,172.855312 L125,172.855312 Z" id="Path" fill="#6C63FF" opacity="0.1"></path>
            <path d="M658.653215,389.90131 C642.057972,424.188705 608.342637,447.115781 573.415149,462.235766 C545.450385,474.261444 515.890146,482.159222 485.659055,485.682064 C479.869048,486.370189 474.060296,486.904007 468.2328,487.283518 C453.341898,488.255245 438.403064,488.238527 423.514369,487.233473 C414.558602,486.637098 405.634077,485.684149 396.740793,484.374626 C365.839625,479.861148 335.713163,471.077876 307.222704,458.275919 C299.000061,454.568384 290.944037,450.520958 283.054632,446.133639 C269.877313,438.821137 257.251454,430.554124 245.277961,421.398671 C242.62872,419.37183 240.012803,417.301199 237.43021,415.186778 L236.368015,414.317238 C234.337347,412.640715 232.325424,410.926659 230.282259,409.262647 C226.886188,406.414452 223.281246,403.825659 219.497851,401.518112 C219.241674,401.367976 218.985498,401.217839 218.723073,401.073959 C218.023273,400.667339 217.310978,400.285743 216.586185,399.922913 C215.093053,399.169285 213.562316,398.492783 212,397.896072 L212,300.864182 L327.960509,300.864182 L327.960509,322.465053 L378.852171,322.465053 L378.852171,164.459026 L438.75375,164.459026 L438.75375,227.641419 L468.382757,227.641419 L468.382757,190.232438 L492.863239,190.232438 L492.863239,150.271139 L504.110016,150.271139 L504.110016,127 C505.084736,127.356574 506.059457,127.725659 507.027929,128.094744 L507.027929,150.271139 L517.974791,150.271139 L517.974791,190.257461 L542.436529,190.257461 L542.436529,227.666442 L578.507439,227.666442 L578.507439,370.189655 L635.841004,370.189655 L635.841004,266.539252 L654.316958,266.539252 C671.105896,305.743614 677.154162,351.691602 658.653215,389.90131 Z" id="Path" fill="#6C63FF" opacity="0.1"></path>
            <rect id="Rectangle" fill="#6C63FF" opacity="0.1" x="396" y="188" width="27" height="27"></rect>
            <rect id="Rectangle" fill="#6C63FF" opacity="0.1" x="396" y="243" width="27" height="27"></rect>
            <rect id="Rectangle" fill="#6C63FF" opacity="0.1" x="396" y="299" width="27" height="27"></rect>
            <rect id="Rectangle" fill="#6C63FF" opacity="0.1" x="396" y="354" width="27" height="27"></rect>
            <rect id="Rectangle" fill="#6C63FF" opacity="0.1" x="396" y="410" width="27" height="27"></rect>
            <path d="M423,466 L423,487 C413.968495,486.408392 404.968495,485.463061 396,484.164007 L396,466 L423,466 Z" id="Path" fill="#6C63FF" opacity="0.1"></path>
            <rect id="Rectangle" fill="#6C63FF" opacity="0.1" x="221" y="335" width="94" height="12"></rect>
            <rect id="Rectangle" fill="#6C63FF" opacity="0.1" x="221" y="372" width="94" height="12"></rect>
            <path d="M314,409 L314,421 L244.951053,421 C242.3097,418.995876 239.701572,416.948454 237.126669,414.857732 L236.067636,413.997938 C234.043014,412.340206 232.037081,410.645361 230,409 L314,409 Z" id="Path" fill="#6C63FF" opacity="0.1"></path>
            <path d="M314,446 L314,458 L306.800715,458 C298.703057,454.335909 290.769485,450.335909 283,446 L314,446 Z" id="Path" fill="#6C63FF" opacity="0.1"></path>
            <rect id="Rectangle" fill="#6C63FF" opacity="0.1" x="468" y="261" width="17" height="17"></rect>
            <rect id="Rectangle" fill="#6C63FF" opacity="0.1" x="91" y="180" width="17" height="17"></rect>
            <rect id="Rectangle" fill="#6C63FF" opacity="0.1" x="91" y="220" width="17" height="17"></rect>
            <rect id="Rectangle" fill="#6C63FF" opacity="0.1" x="91" y="261" width="17" height="17"></rect>
            <rect id="Rectangle" fill="#6C63FF" opacity="0.1" x="91" y="301" width="17" height="17"></rect>
            <rect id="Rectangle" fill="#6C63FF" opacity="0.1" x="91" y="342" width="17" height="17"></rect>
            <rect id="Rectangle" fill="#6C63FF" opacity="0.1" x="91" y="382" width="17" height="17"></rect>
            <rect id="Rectangle" fill="#6C63FF" opacity="0.1" x="535" y="261" width="17" height="17"></rect>
            <rect id="Rectangle" fill="#6C63FF" opacity="0.1" x="468" y="304" width="17" height="17"></rect>
            <rect id="Rectangle" fill="#6C63FF" opacity="0.1" x="535" y="304" width="17" height="17"></rect>
            <rect id="Rectangle" fill="#6C63FF" opacity="0.1" x="468" y="347" width="17" height="17"></rect>
            <rect id="Rectangle" fill="#6C63FF" opacity="0.1" x="535" y="347" width="17" height="17"></rect>
            <rect id="Rectangle" fill="#6C63FF" opacity="0.1" x="468" y="390" width="17" height="17"></rect>
            <rect id="Rectangle" fill="#6C63FF" opacity="0.1" x="535" y="390" width="17" height="17"></rect>
            <rect id="Rectangle" fill="#6C63FF" opacity="0.1" x="468" y="433" width="17" height="17"></rect>
            <rect id="Rectangle" fill="#6C63FF" opacity="0.1" x="535" y="433" width="17" height="17"></rect>
            <polygon id="Path" fill="#6C63FF" opacity="0.1" points="468 487 468 476 485 476 485 485.434686"></polygon>
            <path d="M4,228 L4,238 L71,238 L71,228 L4,228 Z M9.96700103,237.375 L5.04893597,237.375 L5.04893597,228.625 L9.96700103,228.625 L9.96700103,237.375 Z M15.9340021,237.375 L11.015937,237.375 L11.015937,228.625 L15.9340021,228.625 L15.9340021,237.375 Z M21.9010031,237.375 L16.982938,237.375 L16.982938,228.625 L21.9010031,228.625 L21.9010031,237.375 Z M27.8680041,237.375 L22.9499391,237.375 L22.9499391,228.625 L27.8680041,228.625 L27.8680041,237.375 Z M33.8350052,237.375 L28.9169401,237.375 L28.9169401,228.625 L33.8350052,228.625 L33.8350052,237.375 Z M39.8020062,237.375 L34.8839411,237.375 L34.8839411,228.625 L39.8020062,228.625 L39.8020062,237.375 Z M45.7690072,237.375 L40.8509422,237.375 L40.8509422,228.625 L45.7690072,228.625 L45.7690072,237.375 Z M51.7360082,237.375 L46.8179432,237.375 L46.8179432,228.625 L51.7360082,228.625 L51.7360082,237.375 Z M57.7030093,237.375 L52.7849442,237.375 L52.7849442,228.625 L57.7030093,228.625 L57.7030093,237.375 Z M63.6700103,237.375 L58.7519453,237.375 L58.7519453,228.625 L63.6700103,228.625 L63.6700103,237.375 Z M69.951064,237.375 L64.7189463,237.375 L64.7189463,228.625 L69.951064,228.625 L69.951064,237.375 Z" id="Shape" fill="#6C63FF" fill-rule="nonzero" opacity="0.1"></path>
            <path d="M4,257 L4,267 L71,267 L71,257 L4,257 Z M9.96700103,266.373041 L5.04893597,266.373041 L5.04893597,257.626959 L9.96700103,257.626959 L9.96700103,266.373041 Z M15.9340021,266.373041 L11.015937,266.373041 L11.015937,257.626959 L15.9340021,257.626959 L15.9340021,266.373041 Z M21.9010031,266.373041 L16.982938,266.373041 L16.982938,257.626959 L21.9010031,257.626959 L21.9010031,266.373041 Z M27.8680041,266.373041 L22.9499391,266.373041 L22.9499391,257.626959 L27.8680041,257.626959 L27.8680041,266.373041 Z M33.8350052,266.373041 L28.9169401,266.373041 L28.9169401,257.626959 L33.8350052,257.626959 L33.8350052,266.373041 Z M39.8020062,266.373041 L34.8839411,266.373041 L34.8839411,257.626959 L39.8020062,257.626959 L39.8020062,266.373041 Z M45.7690072,266.373041 L40.8509422,266.373041 L40.8509422,257.626959 L45.7690072,257.626959 L45.7690072,266.373041 Z M51.7360082,266.373041 L46.8179432,266.373041 L46.8179432,257.626959 L51.7360082,257.626959 L51.7360082,266.373041 Z M57.7030093,266.373041 L52.7849442,266.373041 L52.7849442,257.626959 L57.7030093,257.626959 L57.7030093,266.373041 Z M63.6700103,266.373041 L58.7519453,266.373041 L58.7519453,257.626959 L63.6700103,257.626959 L63.6700103,266.373041 Z M69.951064,266.373041 L64.7189463,266.373041 L64.7189463,257.626959 L69.951064,257.626959 L69.951064,266.373041 Z" id="Shape" fill="#6C63FF" fill-rule="nonzero" opacity="0.1"></path>
            <path d="M4,286 L4,296 L71,296 L71,286 L4,286 Z M9.96700103,295.373041 L5.04893597,295.373041 L5.04893597,286.626959 L9.96700103,286.626959 L9.96700103,295.373041 Z M15.9340021,295.373041 L11.015937,295.373041 L11.015937,286.626959 L15.9340021,286.626959 L15.9340021,295.373041 Z M21.9010031,295.373041 L16.982938,295.373041 L16.982938,286.626959 L21.9010031,286.626959 L21.9010031,295.373041 Z M27.8680041,295.373041 L22.9499391,295.373041 L22.9499391,286.626959 L27.8680041,286.626959 L27.8680041,295.373041 Z M33.8350052,295.373041 L28.9169401,295.373041 L28.9169401,286.626959 L33.8350052,286.626959 L33.8350052,295.373041 Z M39.8020062,295.373041 L34.8839411,295.373041 L34.8839411,286.626959 L39.8020062,286.626959 L39.8020062,295.373041 Z M45.7690072,295.373041 L40.8509422,295.373041 L40.8509422,286.626959 L45.7690072,286.626959 L45.7690072,295.373041 Z M51.7360082,295.373041 L46.8179432,295.373041 L46.8179432,286.626959 L51.7360082,286.626959 L51.7360082,295.373041 Z M57.7030093,295.373041 L52.7849442,295.373041 L52.7849442,286.626959 L57.7030093,286.626959 L57.7030093,295.373041 Z M63.6700103,295.373041 L58.7519453,295.373041 L58.7519453,286.626959 L63.6700103,286.626959 L63.6700103,295.373041 Z M69.951064,295.373041 L64.7189463,295.373041 L64.7189463,286.626959 L69.951064,286.626959 L69.951064,295.373041 Z" id="Shape" fill="#6C63FF" fill-rule="nonzero" opacity="0.1"></path>
            <path d="M4,315 L4,325 L71,325 L71,315 L4,315 Z M9.96700103,324.375 L5.04893597,324.375 L5.04893597,315.625 L9.96700103,315.625 L9.96700103,324.375 Z M15.9340021,324.375 L11.015937,324.375 L11.015937,315.625 L15.9340021,315.625 L15.9340021,324.375 Z M21.9010031,324.375 L16.982938,324.375 L16.982938,315.625 L21.9010031,315.625 L21.9010031,324.375 Z M27.8680041,324.375 L22.9499391,324.375 L22.9499391,315.625 L27.8680041,315.625 L27.8680041,324.375 Z M33.8350052,324.375 L28.9169401,324.375 L28.9169401,315.625 L33.8350052,315.625 L33.8350052,324.375 Z M39.8020062,324.375 L34.8839411,324.375 L34.8839411,315.625 L39.8020062,315.625 L39.8020062,324.375 Z M45.7690072,324.375 L40.8509422,324.375 L40.8509422,315.625 L45.7690072,315.625 L45.7690072,324.375 Z M51.7360082,324.375 L46.8179432,324.375 L46.8179432,315.625 L51.7360082,315.625 L51.7360082,324.375 Z M57.7030093,324.375 L52.7849442,324.375 L52.7849442,315.625 L57.7030093,315.625 L57.7030093,324.375 Z M63.6700103,324.375 L58.7519453,324.375 L58.7519453,315.625 L63.6700103,315.625 L63.6700103,324.375 Z M69.951064,324.375 L64.7189463,324.375 L64.7189463,315.625 L69.951064,315.625 L69.951064,324.375 Z" id="Shape" fill="#6C63FF" fill-rule="nonzero" opacity="0.1"></path>
            <path d="M4,344 C4.23593603,344.9375 4.50291627,345.875 4.78231421,346.8 L4.78231421,344.625 L9.64383819,344.625 L9.64383819,353.375 L7.04854186,353.375 C7.12304798,353.58125 7.20376294,353.79375 7.29068674,354 L70,354 L70,344 L4,344 Z M15.5422389,353.375 L10.680715,353.375 L10.680715,344.625 L15.5422389,344.625 L15.5422389,353.375 Z M21.4406397,353.375 L16.5791157,353.375 L16.5791157,344.625 L21.4406397,344.625 L21.4406397,353.375 Z M27.3390405,353.375 L22.4775165,353.375 L22.4775165,344.625 L27.3390405,344.625 L27.3390405,353.375 Z M33.2374412,353.375 L28.3759172,353.375 L28.3759172,344.625 L33.2374412,344.625 L33.2374412,353.375 Z M39.135842,353.375 L34.274318,353.375 L34.274318,344.625 L39.135842,344.625 L39.135842,353.375 Z M45.0342427,353.375 L40.1727187,353.375 L40.1727187,344.625 L45.0342427,344.625 L45.0342427,353.375 Z M50.9326435,353.375 L46.0711195,353.375 L46.0711195,344.625 L50.9326435,344.625 L50.9326435,353.375 Z M56.8310442,353.375 L51.9695202,353.375 L51.9695202,344.625 L56.8310442,344.625 L56.8310442,353.375 Z M62.729445,353.375 L57.867921,353.375 L57.867921,344.625 L62.729445,344.625 L62.729445,353.375 Z M68.9382879,353.375 L63.7663217,353.375 L63.7663217,344.625 L68.9382879,344.625 L68.9382879,353.375 Z" id="Shape" fill="#6C63FF" fill-rule="nonzero" opacity="0.1"></path>
            <path d="M18,373 C18.1512665,373.206121 18.302533,373.418488 18.4601023,373.62461 L21.7312403,373.62461 L21.7312403,377.81574 C22.0778927,378.234229 22.4308479,378.646471 22.7838031,379.064959 L22.7838031,373.630856 L27.7188726,373.630856 L27.7188726,382.37539 L25.7208943,382.37539 C25.9162802,382.581512 26.1116661,382.793879 26.3196575,383 L71,383 L71,373.006246 L18,373 Z M33.7065049,382.369144 L28.7714354,382.369144 L28.7714354,373.62461 L33.7065049,373.62461 L33.7065049,382.369144 Z M39.6941372,382.369144 L34.7590677,382.369144 L34.7590677,373.62461 L39.6941372,373.62461 L39.6941372,382.369144 Z M45.6817695,382.369144 L40.7467,382.369144 L40.7467,373.62461 L45.6817695,373.62461 L45.6817695,382.369144 Z M51.6694018,382.369144 L46.7343323,382.369144 L46.7343323,373.62461 L51.6694018,373.62461 L51.6694018,382.369144 Z M57.6570341,382.369144 L52.7219646,382.369144 L52.7219646,373.62461 L57.6570341,373.62461 L57.6570341,382.369144 Z M63.6446664,382.369144 L58.7095969,382.369144 L58.7095969,373.62461 L63.6446664,373.62461 L63.6446664,382.369144 Z M69.9474373,382.369144 L64.6972292,382.369144 L64.6972292,373.62461 L69.9474373,373.62461 L69.9474373,382.369144 Z" id="Shape" fill="#6C63FF" fill-rule="nonzero" opacity="0.1"></path>
            <path d="M51,402 C51.5672865,402.301775 52.1408761,402.591716 52.720769,402.881657 L52.720769,402.591716 L57.6561614,402.591716 L57.6561614,405.207101 L58.7087929,405.656805 L58.7087929,402.591716 L63.6441853,402.591716 L63.6441853,407.615385 L64.6968169,407.994083 L64.6968169,402.591716 L69.9473684,402.591716 L69.9473684,409.692308 L71,410 L71,402 L51,402 Z" id="Path" fill="#6C63FF" opacity="0.1"></path>
            <path d="M256.689358,141.019083 C256.689358,141.019083 241.320653,140.137052 243.151489,150.366158 C242.958875,151.432648 243.510519,152.495767 244.518169,153 C244.518169,153 244.518169,152.240474 246.09114,152.497733 C246.642795,152.583843 247.20314,152.608511 247.760811,152.571235 C248.515021,152.524058 249.232474,152.244503 249.804385,151.774957 C249.804385,151.774957 254.12361,150.078273 255.806174,143.371165 C255.806174,143.371165 257.043922,141.907239 256.998795,141.533601 L254.420154,142.587137 C254.420154,142.587137 255.309785,144.363449 254.613552,145.839626 C254.613552,145.839626 254.529746,142.654515 254.026911,142.728017 C253.930212,142.728017 252.67957,143.340539 252.67957,143.340539 C252.67957,143.340539 254.207416,146.439897 253.053473,148.68785 C253.053473,148.68785 253.491843,144.877967 252.208968,143.567172 L250.339453,144.590082 C250.339453,144.590082 252.125162,147.787444 250.913201,150.396784 C250.913201,150.396784 251.229084,146.39702 249.959103,144.841216 L248.302326,146.066259 C248.302326,146.066259 249.978443,149.214618 248.946986,151.382944 C248.946986,151.382944 248.811608,146.721656 247.934869,146.366394 C247.305756,146.870224 246.74491,147.446317 246.265199,148.081454 C246.265199,148.081454 247.412694,150.366158 246.703568,151.572825 C246.703568,151.572825 246.265199,148.473467 245.904189,148.455092 C245.904189,148.455092 244.466596,150.513163 244.318324,151.921962 C244.384568,150.614985 244.811429,149.347548 245.556072,148.246835 C244.725583,148.396128 243.959197,148.772991 243.351334,149.330997 C243.351334,149.330997 243.576965,147.879322 245.929975,147.750692 C245.929975,147.750692 247.122597,146.194888 247.444927,146.096885 C247.444927,146.096885 245.117703,145.913128 243.705897,146.507274 C243.705897,146.507274 244.950091,145.135226 247.870403,145.759998 L249.501394,144.492079 C249.501394,144.492079 246.439257,144.09394 245.14349,144.534955 C245.14349,144.534955 246.632655,143.309913 249.939763,144.204194 L251.719026,143.193534 C250.352218,142.909138 248.952446,142.793845 247.55452,142.850522 C247.55452,142.850522 249.191957,142.011367 252.241201,142.924024 L253.530522,142.37888 C253.530522,142.37888 251.596541,142.023618 251.061473,141.968491 C250.526404,141.913364 250.468385,141.766359 250.468385,141.766359 C251.679222,141.574521 252.922342,141.705995 254.059144,142.146122 C254.059144,142.146122 256.734485,141.178338 256.689358,141.019083 Z" id="Path" fill="#6C63FF" opacity="0.1"></path>
            <path d="M217.214691,192.127449 C217.214691,192.127449 212.199688,206.427204 222.549669,207.733554 C223.521857,208.228847 224.69135,208.020564 225.44791,207.217387 C225.44791,207.217387 224.727965,206.968862 225.39253,205.573297 C225.625378,205.077502 225.802919,204.555846 225.92172,204.018422 C226.077353,203.288374 225.999606,202.525718 225.700199,201.84542 C225.700199,201.84542 225.238695,197.250891 219.232999,193.675952 C219.232999,193.675952 218.162311,192.063724 217.786955,192 L218.094624,194.772011 C218.094624,194.772011 220.045245,194.453389 221.282074,195.549449 C221.282074,195.549449 218.205385,194.68917 218.125391,195.18622 C218.125391,195.281807 218.353066,196.645509 218.353066,196.645509 C218.353066,196.645509 221.74973,196.110224 223.601897,197.869017 C223.601897,197.869017 220.045245,196.326887 218.439213,197.161676 L218.919176,199.188112 C218.919176,199.188112 222.481982,198.448909 224.666431,200.360641 C224.666431,200.360641 220.900564,198.888608 219.054551,199.627811 L219.786803,201.539543 C219.786803,201.539543 223.275768,200.902299 225.084861,202.489036 C225.084861,202.489036 220.555975,201.214548 219.983711,201.966496 C220.29886,202.708495 220.699702,203.408195 221.177466,204.050284 C221.177466,204.050284 223.694198,203.642448 224.660278,204.687528 C224.660278,204.687528 221.552822,204.184105 221.442061,204.515472 C221.442061,204.515472 223.035786,206.490929 224.352609,207.064448 C223.116013,206.611246 222.015152,205.831442 221.159006,204.802232 C221.077469,205.635452 221.233644,206.475144 221.608203,207.217387 C221.608203,207.217387 220.266766,206.580143 220.777497,204.317927 C220.777497,204.317927 219.596048,202.731189 219.596048,202.406195 C219.596048,202.406195 218.783802,204.553707 218.98071,206.070348 C218.98071,206.070348 217.99617,204.48361 219.386833,201.902772 L218.611508,199.99104 C218.611508,199.99104 217.380832,202.775796 217.466979,204.139498 C217.466979,204.139498 216.70396,202.361588 218.45152,199.487617 L217.965403,197.505788 C217.321435,198.709487 216.831215,199.994733 216.507052,201.329252 C216.507052,201.329252 216.13785,199.525852 217.842335,196.906779 L217.663887,195.543077 C217.663887,195.543077 216.802414,197.250891 216.599353,197.767058 C216.396292,198.283226 216.242457,198.264109 216.242457,198.264109 C216.384175,197.059008 216.846466,195.918394 217.57774,194.969557 C217.57774,194.969557 217.380832,192.127449 217.214691,192.127449 Z" id="Path" fill="#6C63FF" opacity="0.1"></path>
            <path d="M315.212451,180.133832 C315.212451,180.133832 310.203477,194.460266 320.547561,195.73486 C321.522944,196.229639 322.694929,196.018771 323.452028,195.212277 C323.452028,195.212277 322.725911,194.963731 323.396646,193.574424 C323.631474,193.077852 323.807114,192.553543 323.919696,192.013046 C324.077256,191.283625 324.001669,190.520929 323.704323,189.839864 C323.704323,189.839864 323.242808,185.244953 317.236962,181.669718 C317.236962,181.669718 316.160094,180.06373 315.784729,180 L316.098559,182.765868 C316.098559,182.765868 318.049228,182.453593 319.286088,183.549744 C319.286088,183.549744 316.209322,182.689393 316.123173,183.180111 C316.123173,183.282079 316.350854,184.639521 316.350854,184.639521 C316.350854,184.639521 319.747602,184.110565 321.605969,185.863131 C321.605969,185.863131 318.049228,184.327246 316.437003,185.155732 L316.923132,187.188709 C316.923132,187.188709 320.486026,186.443072 322.670529,188.361335 C322.670529,188.361335 318.898415,186.882806 317.052356,187.622071 L317.784626,189.533961 C317.784626,189.533961 321.273678,188.896665 323.082816,190.483534 C323.082816,190.483534 318.559971,189.20894 317.981539,189.967323 C318.306544,190.712254 318.719969,191.412308 319.212245,192.051284 C319.212245,192.051284 321.722886,191.637041 322.695144,192.688581 C322.695144,192.688581 319.587611,192.185116 319.476847,192.522884 C319.476847,192.522884 321.064458,194.492131 322.381314,195.072071 C321.14547,194.620788 320.046119,193.840505 319.193785,192.809667 C319.112163,193.642248 319.266098,194.481443 319.636839,195.225023 C319.636839,195.225023 318.301523,194.587726 318.812266,192.331695 C318.812266,192.331695 317.630788,190.738453 317.624634,190.419804 C317.624634,190.419804 316.818522,192.573868 317.009281,194.084261 C317.009281,194.084261 316.024717,192.503765 317.415414,189.91634 L316.64007,188.004449 C316.64007,188.004449 315.409364,190.789436 315.495513,192.146879 C315.495513,192.146879 314.732475,190.375193 316.480078,187.500984 L315.987795,185.512618 C315.343812,186.716417 314.853579,188.00177 314.529409,189.336399 C314.529409,189.336399 314.16635,187.532849 315.870878,184.913559 L315.692426,183.549744 C315.692426,183.549744 314.830932,185.257699 314.621712,185.77391 C314.412492,186.29012 314.264807,186.271001 314.264807,186.271001 C314.410509,185.065756 314.874725,183.925582 315.606276,182.976176 C315.606276,182.976176 315.384749,180.140205 315.212451,180.133832 Z" id="Path" fill="#6C63FF" opacity="0.1"></path>
            <path d="M174.214433,295.121081 C174.214433,295.121081 169.200495,309.427807 179.548279,310.734211 C180.521262,311.230017 181.691927,311.018898 182.445905,310.211649 C182.445905,310.211649 181.726112,309.963114 182.390536,308.573864 C182.627036,308.077433 182.804686,307.553187 182.919614,307.012551 C183.078416,306.282663 183.000577,305.518906 182.69814,304.839458 C182.69814,304.839458 182.236734,300.244737 176.232312,296.676022 C176.232312,296.676022 175.161852,295.063727 174.786576,295 L175.094179,297.765754 C175.094179,297.765754 177.050538,297.453492 178.280952,298.549597 C178.280952,298.549597 175.204917,297.689282 175.12494,298.17998 C175.12494,298.281944 175.352566,299.63933 175.352566,299.63933 C175.352566,299.63933 178.74851,299.110395 180.600283,300.86289 C180.600283,300.86289 177.044386,299.327067 175.438695,300.155519 L175.918557,302.188412 C175.918557,302.188412 179.480606,301.442806 181.664592,303.36099 C181.664592,303.36099 177.899524,301.882523 176.053902,302.621756 L176.785999,304.533568 C176.785999,304.533568 180.274224,303.896298 182.082933,305.483102 C182.082933,305.483102 177.56116,304.20856 176.982865,304.966912 C177.297948,305.708942 177.698705,306.408671 178.176367,307.050787 C178.176367,307.050787 180.692564,306.636561 181.664592,307.688058 C181.664592,307.688058 178.551643,307.184614 178.440906,307.522367 C178.440906,307.522367 180.034293,309.491534 181.350836,310.07145 C180.114269,309.621892 179.013276,308.843993 178.157911,307.815512 C178.076522,308.64671 178.232689,309.484361 178.607012,310.224395 C178.607012,310.224395 177.265861,309.587124 177.776482,307.331186 C177.776482,307.331186 176.601437,305.73801 176.595285,305.419374 C176.595285,305.419374 175.783211,307.573349 175.980078,309.08368 C175.980078,309.08368 174.995746,307.503249 176.386114,304.915931 L175.610953,303.004119 C175.610953,303.004119 174.380539,305.788991 174.47282,307.146378 C174.47282,307.146378 173.709963,305.374766 175.457151,302.500675 L174.964986,300.518763 C174.319948,301.721922 173.829768,303.007389 173.506945,304.342387 C173.506945,304.342387 173.13782,302.532539 174.841944,299.919729 L174.663534,298.549597 C174.663534,298.549597 173.802244,300.257483 173.599226,300.773672 C173.396207,301.289861 173.242406,301.270743 173.242406,301.270743 C173.384612,300.064589 173.8491,298.923521 174.583557,297.976054 C174.583557,297.976054 174.380539,295.121081 174.214433,295.121081 Z" id="Path" fill="#6C63FF" opacity="0.1"></path>
            <path d="M154.212453,162.127454 C154.212453,162.127454 149.20347,176.427788 159.547574,177.734192 C160.521958,178.228478 161.692539,178.02044 162.452046,177.218003 C162.452046,177.218003 161.725928,176.969468 162.396664,175.573847 C162.62875,175.076118 162.804275,174.552176 162.919715,174.012536 C163.077255,173.285253 163.001646,172.524612 162.704341,171.845818 C162.704341,171.845818 162.242825,167.251103 156.230815,163.67602 C156.230815,163.67602 155.160098,162.063727 154.784732,162 L155.098563,164.772124 C155.098563,164.772124 157.049236,164.453489 158.279944,165.549593 C158.279944,165.549593 155.203173,164.689279 155.123177,165.186349 C155.123177,165.281939 155.350858,166.645697 155.350858,166.645697 C155.350858,166.645697 158.747613,166.11039 160.605983,167.869255 C160.605983,167.869255 157.049236,166.327062 155.437008,167.161885 L155.916984,169.188403 C155.916984,169.188403 159.479885,168.442798 161.670546,170.36098 C161.670546,170.36098 157.898424,168.882514 156.052362,169.62812 L156.784633,171.539929 C156.784633,171.539929 160.273692,170.902659 162.082833,172.495834 C162.082833,172.495834 157.55998,171.221294 156.981547,171.973272 C157.296704,172.715301 157.697557,173.415029 158.175334,174.057145 C158.175334,174.057145 160.692133,173.649292 161.664392,174.694415 C161.664392,174.694415 158.556853,174.190971 158.44609,174.522352 C158.44609,174.522352 160.033704,176.497888 161.350562,177.071431 C160.11471,176.616628 159.014185,175.837051 158.156873,174.809123 C158.075334,175.642377 158.231513,176.482103 158.606082,177.224376 C158.606082,177.224376 157.26461,176.587106 157.781507,174.324798 C157.781507,174.324798 156.600027,172.737996 156.593874,172.412989 C156.593874,172.412989 155.78776,174.560588 155.978519,176.07729 C155.978519,176.07729 154.987799,174.490488 156.384653,171.909545 L155.603153,169.997736 C155.603153,169.997736 154.372445,172.782605 154.464748,174.146362 C154.464748,174.146362 153.701709,172.36838 155.449315,169.494293 L154.957031,167.512384 C154.313047,168.716132 153.822813,170.00143 153.498642,171.336003 C153.498642,171.336003 153.135583,169.532529 154.833961,166.91335 L154.661661,165.549593 C154.661661,165.549593 153.794012,167.257476 153.590945,167.767292 C153.387878,168.277108 153.23404,168.270735 153.23404,168.270735 C153.37628,167.064583 153.840879,165.923516 154.575512,164.97605 C154.575512,164.97605 154.384752,162.127454 154.212453,162.127454 Z" id="Path" fill="#6C63FF" opacity="0.1"></path>
            <path d="M192,239.469662 C192,239.469662 195.836926,253.981224 204.938186,248.933724 C205.999163,248.759142 206.83121,247.898542 207,246.801156 C207,246.801156 206.280195,247.028293 206.054494,245.507734 C205.968465,244.967983 205.82104,244.440644 205.615291,243.936699 C205.344867,243.251748 204.862073,242.679147 204.242782,242.308881 C204.242782,242.308881 201.333062,238.863962 194.482717,239.520137 C194.482717,239.520137 192.725905,238.857652 192.384303,239.028005 L194.165514,241.078552 C194.165514,241.078552 195.574624,239.671562 197.178935,239.816677 C197.178935,239.816677 194.196015,240.952365 194.415616,241.387712 C194.464416,241.476043 195.403823,242.435068 195.403823,242.435068 C195.403823,242.435068 197.843839,239.99334 200.332656,240.315118 C200.332656,240.315118 196.605531,241.173193 195.763725,242.801012 L197.270435,244.157527 C197.270435,244.157527 199.747052,241.450806 202.577471,241.703181 C202.577471,241.703181 198.703945,242.737918 197.618137,244.428831 L199.277349,245.558209 C199.277349,245.558209 201.717365,242.965056 204.096381,243.198502 C204.096381,243.198502 199.740952,244.857868 199.673851,245.791656 C200.340143,246.206173 201.053069,246.534608 201.796665,246.769609 C201.796665,246.769609 203.626678,244.952509 204.962586,245.211193 C204.962586,245.211193 202.162668,246.643421 202.260268,246.977818 C202.260268,246.977818 204.639284,247.608756 206.011793,247.305906 C204.762059,247.67238 203.44135,247.694132 202.180968,247.368999 C202.573343,248.091147 203.163327,248.677232 203.876779,249.053602 C203.876779,249.053602 202.43717,249.324906 201.607564,247.198646 C201.607564,247.198646 199.777552,246.611874 199.582351,246.346881 C199.582351,246.346881 200.119154,248.567781 201.107361,249.678231 C201.107361,249.678231 199.43595,248.97789 199.137048,246.062959 L197.447336,244.971437 C197.447336,244.971437 198.00244,247.943152 198.807645,248.996818 C198.807645,248.996818 197.209435,248.012556 197.038634,244.655968 L195.550224,243.343618 C195.695167,244.705155 196.010959,246.041365 196.48963,247.318524 C196.48963,247.318524 195.202521,246.056649 195.135421,242.952437 L194.238715,241.949246 C194.238715,241.949246 194.482717,243.842059 194.598617,244.378356 C194.714518,244.914652 194.598617,245.009293 194.598617,245.009293 C194.049118,243.949378 193.79566,242.752198 193.866612,241.551756 C193.866612,241.551756 192.140301,239.375021 192,239.469662 Z" id="Path" fill="#6C63FF" opacity="0.1"></path>
            <path d="M299,251.439158 C299,251.439158 302.836926,265.992757 311.932086,260.930636 C312.99635,260.759918 313.83228,259.895355 314,258.791889 C314,258.791889 313.274095,259.019685 313.048394,257.526359 C312.967183,256.984654 312.821711,256.455444 312.615291,255.950774 C312.340536,255.264653 311.856192,254.691097 311.236682,254.31824 C311.236682,254.31824 308.326962,250.863342 301.476617,251.527745 C301.476617,251.527745 299.719805,250.857014 299.384303,251.027861 L301.159414,253.084348 C301.159414,253.084348 302.568524,251.673281 304.172834,251.818817 C304.172834,251.818817 301.189915,252.957795 301.415616,253.394402 C301.458316,253.48299 302.403823,254.444793 302.403823,254.444793 C302.403823,254.444793 304.843839,251.995991 307.332656,252.318702 C307.332656,252.318702 303.599431,253.179262 302.757625,254.811796 L304.270435,256.172242 C304.270435,256.172242 306.710451,253.457679 309.57137,253.710785 C309.57137,253.710785 305.703945,254.74852 304.618137,256.444331 L306.277349,257.57698 C306.277349,257.57698 308.717365,254.976315 311.090281,255.210439 C311.090281,255.210439 306.734852,256.874611 306.673851,257.811103 C307.337881,258.227032 308.048815,258.556446 308.790565,258.791889 C308.790565,258.791889 310.620577,256.969526 311.956486,257.228959 C311.956486,257.228959 309.162668,258.665336 309.254168,259.000702 C309.254168,259.000702 311.633184,259.633467 313.011793,259.32974 C311.759934,259.696932 310.437348,259.718744 309.174868,259.393016 C309.569253,260.115639 310.158703,260.70289 310.870679,261.082499 C310.870679,261.082499 309.43107,261.354588 308.601464,259.22217 C308.601464,259.22217 306.771452,258.633698 306.582351,258.367937 C306.582351,258.367937 307.113054,260.59527 308.101261,261.708937 C308.101261,261.708937 306.42985,261.006567 306.130948,258.083192 L304.441236,256.975853 C304.441236,256.975853 304.99634,259.956177 305.807645,261.012895 C305.807645,261.012895 304.209435,260.025781 304.038634,256.659471 L302.544124,255.343319 C302.68888,256.709482 303.006793,258.049859 303.48963,259.32974 C303.48963,259.32974 302.196421,258.064209 302.129321,254.951005 L301.232615,253.944908 C301.232615,253.944908 301.476617,255.843204 301.592517,256.381054 C301.708418,256.918904 301.592517,257.013819 301.592517,257.013819 C301.043018,255.950834 300.78956,254.750186 300.860512,253.546266 C300.860512,253.546266 299.140301,251.344243 299,251.439158 Z" id="Path" fill="#6C63FF" opacity="0.1"></path>
            <path d="M258.199889,396 C258.199889,396 290.835191,385.135572 284.079155,346.640547 L242.624521,336 L233,367.585821 L258.199889,396 Z" id="Path" fill="#CED7E7"></path>
            <path d="M233,367.217085 L258.196646,396 C258.196646,396 290.835897,384.994582 284.079044,346 L233,367.217085 Z" id="Path" fill="#000000" opacity="0.1"></path>
            <path d="M98.0452776,81.5841932 C98.0452776,81.5841932 102.378612,88.4814684 108.302899,85.0358586 C114.227187,81.5902488 108.544328,72.070919 108.544328,72.070919 C108.544328,72.070919 97.1971822,70.5509751 98.0452776,81.5841932 Z" id="Path" fill="#FED253"></path>
            <path d="M108.306806,85.0405375 C106.893962,85.9350284 105.166715,86.2199918 103.532224,85.8282544 C101.358581,85.2889713 99.686548,83.6529439 98.7886044,82.5804371 C98.5207144,82.2662163 98.2725501,81.9363854 98.0454787,81.5927613 C97.7420357,77.6541769 98.992964,75.3092043 100.726924,73.9276701 C103.111119,72.0310902 106.411836,71.9523185 107.83616,72.0129121 C108.275843,72.0129121 108.529744,72.0735057 108.529744,72.0735057 L108.647406,72.2674053 C108.814609,72.5764327 109.179979,73.2611404 109.57012,74.1761039 C110.895361,77.1754874 112.474503,82.6107339 108.306806,85.0405375 Z" id="Path" fill="#000000" opacity="0.1"></path>
            <path d="M261.576488,345 L284.093444,346.829538 L326,347.175328 L292.981387,388.041307 C292.981387,388.041307 282.504748,388.61343 280.346873,390.09718 C278.188998,391.580929 247.891183,390.788758 247.891183,390.788758 L243,369.840228 L261.576488,345 Z" id="Path" fill="#FFA2A2"></path>
            <path d="M261.576488,345 L284.093444,346.829538 L326,347.175328 L292.981387,388.041307 C292.981387,388.041307 282.504748,388.61343 280.346873,390.09718 C278.188998,391.580929 247.891183,390.788758 247.891183,390.788758 L243,369.840228 L261.576488,345 Z" id="Path" fill="#000000" opacity="0.05"></path>
            <path d="M238.743708,235.883427 L243.972074,244.780353 L245.108947,260.293584 C245.108947,260.293584 248.750689,273.51993 251.480434,277.398237 C254.210178,281.276545 255.347051,291.545603 255.347051,291.545603 C255.347051,291.545603 256.483924,301.125462 257.845673,303.174261 C259.207422,305.22306 261.031416,320.090951 261.031416,320.090951 C261.031416,320.090951 273.087268,344.269286 284,347.23284 C284,347.23284 229.873599,365.026692 258.301672,396.961643 C258.301672,396.961643 238.062833,401.973996 233.284218,396.27871 C228.505604,390.583424 216,306.175407 216,306.175407 L219.866618,235 L238.743708,235.883427 Z" id="Path" fill="#CED7E7"></path>
            <path d="M238.743708,235.883427 L243.972074,244.780353 L245.108947,260.293584 C245.108947,260.293584 248.750689,273.51993 251.480434,277.398237 C254.210178,281.276545 255.347051,291.545603 255.347051,291.545603 C255.347051,291.545603 256.483924,301.125462 257.845673,303.174261 C259.207422,305.22306 261.031416,320.090951 261.031416,320.090951 C261.031416,320.090951 273.087268,344.269286 284,347.23284 C284,347.23284 229.873599,365.026692 258.301672,396.961643 C258.301672,396.961643 238.062833,401.973996 233.284218,396.27871 C228.505604,390.583424 216,306.175407 216,306.175407 L219.866618,235 L238.743708,235.883427 Z" id="Path" fill="#000000" opacity="0.05"></path>
            <path d="M173.094293,149.02833 C171.575833,156.939057 172.026311,165.10397 174.405714,172.797794 L165.987645,197 C165.987645,197 101.871687,161.151384 107.329693,152.471453 C110.420898,147.548227 110.814324,134.522059 110.56453,124.173875 C110.383429,116.309256 109.827636,110 109.827636,110 C109.827636,110 188.512848,117.770545 178.040221,135.807742 C175.670253,139.907369 173.99862,144.375685 173.094293,149.02833 Z" id="Path" fill="#FFA2A2"></path>
            <path d="M178.045643,136.454969 C175.681476,140.498557 174.013934,144.905795 173.11182,149.494841 C149.093199,157.124832 122.989376,146.865754 110.73509,124.980129 C110.554432,117.223013 110,111 110,111 C110,111 188.473951,118.664327 178.045643,136.454969 Z" id="Path" fill="#000000" opacity="0.1"></path>
            <path d="M209.999743,96.9715452 C210.014641,119.855927 195.334654,140.164474 173.597505,147.331028 C151.860356,154.497582 127.977619,146.902839 114.375036,128.498202 C100.772452,110.093565 100.523567,85.0376165 113.757869,66.3664983 C114.507514,65.3130185 115.296723,64.2845224 116.125497,63.2810099 C120.847826,57.5423874 126.724329,52.8607469 133.37357,49.5399685 C136.981027,47.7354933 140.786009,46.3563016 144.711945,45.4301479 C159.041316,42.0360573 174.136927,44.7439502 186.392426,52.9069089 C198.647924,61.0698677 206.962593,73.954743 209.350051,88.4833291 C209.791295,91.2910448 210.008544,94.129395 209.999743,96.9715452 Z" id="Path" fill="#FFA2A2"></path>
            <path d="M230.847947,315.578736 C230.05633,319.814213 231.047409,327.554266 232.549611,335.431754 C232.611943,335.77534 232.680508,336.118926 232.749073,336.462512 C232.817638,336.806098 232.917369,337.337094 233.004634,337.768138 C233.69652,341.154021 234.450737,344.508669 235.186254,347.557212 C235.921772,350.605756 236.582491,353.217009 237.143479,355.365983 C237.991195,358.583196 238.570882,360.607229 238.570882,360.607229 C238.570882,360.607229 238.645681,362.593781 238.745412,365.754771 C238.801511,367.5789 238.863843,369.802837 238.926175,372.257915 C238.926175,372.970075 238.969807,373.694729 238.988507,374.44437 C239.019673,375.749997 239.050839,377.105599 239.082005,378.492437 C239.082005,378.942222 239.082005,379.392007 239.113171,379.84804 C239.113171,381.341076 239.16927,382.865348 239.194202,384.383373 C239.225368,386.469877 239.250301,388.55638 239.262768,390.580413 C239.262768,391.355043 239.262768,392.117179 239.262768,392.866821 C239.262768,394.803396 239.262768,396.65876 239.262768,398.364196 C239.194202,403.205633 239.000973,406.860138 238.589582,407.915884 C238.446218,408.278211 238.315321,408.671773 238.190657,409.084076 C237.650174,411.023237 237.258418,413.000975 237.018815,415 L235.959171,414.131665 C233.933381,412.457464 231.926291,410.745782 229.888034,409.084076 C226.500121,406.239827 222.903837,403.65462 219.12953,401.350269 C218.873969,401.200341 218.618407,401.050413 218.356613,400.906731 C217.658495,400.500675 216.94791,400.119607 216.224858,399.75728 C214.735312,399.004696 213.208252,398.329132 211.649689,397.733247 C204.450343,394.98456 196.739874,393.985037 188.92344,394.153707 C185.80684,395.346887 183.78105,396.202728 183.78105,396.202728 L179.816734,397.402155 L179.156015,397.60206 C174.86134,398.913933 168.821368,400.775544 166.645981,401.550174 C163.130456,402.799577 132.606473,409.165287 132.606473,409.165287 C129.817894,409.928147 126.969334,410.450635 124.091921,410.727041 C118.852608,412.204035 113.519263,413.322742 108.128695,414.075442 C95.8789026,415.644959 83.4372225,414.64078 71.5959067,411.12685 C71.2424665,411.147944 70.8878548,411.137491 70.5362626,411.095615 C70.7544246,411.095615 70.9663534,411.045639 71.1595826,411.008157 L70.3991322,410.783264 L69.3581877,410.458419 C67.6128915,409.908682 65.8821395,409.306886 64.1659316,408.653031 L63.1249871,408.253222 C61.4628003,407.611862 59.835935,406.922608 58.2443911,406.18546 L57.2034466,405.710687 C55.5412598,404.936057 53.9143945,404.117698 52.3228506,403.255609 C51.7493962,402.955753 51.1821749,402.630908 50.6211869,402.324804 C48.9257563,401.375258 47.2635695,400.3799 45.6346265,399.33873 C45.3603656,396.983605 45.217002,395.409357 45.217002,395.409357 L42.7860538,383.277651 L42.6613898,382.65295 L40.9160937,373.907127 L40.7914297,373.282425 L36.9954105,354.254014 L36.8707465,353.629312 L35.1254504,344.88349 L35.0007864,344.258788 L31.1549016,325.24287 L31.0302376,324.618169 L29.2849415,315.872346 L29.1602775,315.247644 L25.3455587,296.194245 L25.2208947,295.569543 L23.4755986,286.854956 L23.3509346,286.230254 L22.6590493,282.794395 L21.6181048,277.59063 C21.6181048,277.59063 18.295809,272.830404 14.5558886,267.201842 L14.1382642,266.577141 C13.0723869,264.996646 11.9753436,263.35368 10.9094663,261.74195 C10.5541739,261.210954 10.2113479,260.686204 9.86852184,260.167702 C9.34908846,259.380578 8.84627696,258.612195 8.36008731,257.862553 L8.02349449,257.344051 L7.95492928,257.237851 C2.58191043,248.904332 6.17846713,245.281062 6.17846713,245.281062 C6.17846713,245.281062 8.43488572,242.220024 11.3457904,238.171958 C11.489154,237.965806 11.6387508,237.759655 11.7945808,237.547256 C13.0412209,235.798092 14.412525,233.886505 15.7588963,231.974918 L16.7998408,230.488128 C17.1925325,229.932143 17.5789909,229.376159 17.9529829,228.826422 C18.1025797,228.62027 18.2459433,228.407871 18.3830738,228.20172 C21.2565792,224.041207 23.6251954,220.411691 24.111385,219.124805 C24.8718355,217.094525 29.7212655,211.091142 34.5519959,205.824908 C38.3604814,201.664395 42.1502674,197.966161 43.8519311,197.079085 C47.7102822,195.036311 49.2997484,188.433214 49.2997484,188.433214 C49.2997484,188.433214 57.6958695,185.484623 58.830312,183.210709 C59.9647545,180.936795 75.8531826,170.716676 75.8531826,170.716676 C75.8531826,170.716676 82.2796124,166.568658 84.878857,164.069851 C85.2468035,163.743092 85.5677542,163.366769 85.8325367,162.951635 C86.7363507,161.327411 92.6391916,159.990549 95.0389738,159.509529 C95.6622939,159.384589 96.0487523,159.315872 96.0487523,159.315872 C97.0175635,157.55152 98.2422161,155.940995 99.6827082,154.536904 C100.661321,153.668569 101.883028,150.676248 102.911506,147.777633 C104.027249,144.616642 104.893664,141.574345 104.893664,141.574345 C106.713758,135.433528 110.341481,137.25141 110.341481,137.25141 C110.33654,138.090203 110.415894,138.927362 110.578343,139.750217 C112.09301,147.246636 120.320835,150.370144 124.640443,153.87472 C129.408842,157.735377 136.894915,167.749344 142.797756,169.792118 C147.684585,171.485059 153.350565,177.86951 155.145727,179.999742 L155.282857,180.162165 C155.582051,180.511998 155.731647,180.711902 155.731647,180.711902 C155.731647,180.711902 159.078876,180.536986 161.117133,180.499504 L161.858883,180.499504 C162.273484,180.457811 162.66733,180.297321 162.993326,180.037225 C165.019116,178.656634 168.035985,174.608567 169.351191,173.677762 C170.934423,172.534558 172.530123,154.112107 172.530123,154.112107 L172.611154,154.074625 C178.264667,151.419643 184.329571,177.99445 184.329571,177.99445 C184.329571,177.99445 194.994577,181.180429 195.904625,183.454342 C196.079154,183.904128 196.883237,184.703746 198.092478,185.672033 C203.598486,189.889196 209.458849,193.620133 215.607772,196.822957 C215.744902,196.891674 215.875799,196.960392 216.01293,197.016615 C216.136537,197.083399 216.263442,197.143865 216.393155,197.197778 C216.623783,197.310225 216.848179,197.410177 217.060107,197.503882 C217.3967,197.65381 217.70836,197.778751 217.995087,197.878703 L218.369079,198.00989 C219.262463,198.307775 220.103759,198.74411 220.86236,199.303023 C221.086755,199.465445 221.31115,199.634115 221.529312,199.815278 C222.378132,200.52327 223.15864,201.309691 223.860529,202.164156 C223.966494,202.289096 224.066225,202.420284 224.165956,202.545224 C224.639679,203.138691 225.063537,203.72591 225.412596,204.269401 C225.985468,205.107854 226.507908,205.979822 226.977129,206.880653 C226.977129,206.880653 236.277065,222.804298 239.231602,224.615933 C242.186139,226.427567 244,244.862512 244,244.862512 L234.026879,281.913566 C234.026879,281.913566 233.559389,291.28409 232.686741,300.842025 C232.200551,306.201965 231.583465,311.65561 230.847947,315.578736 Z" id="Path" fill="#CED7E7"></path>
            <path d="M156,181.96504 C156,181.96504 149.179569,185.641731 143.852894,185.989185 C143.155617,186.021522 142.456848,185.981294 141.767991,185.869156 C136.18706,185.028949 128,180.467831 128,180.467831 L137.60454,170 L149.287628,175.755096 L153.584563,179.728702 L156,181.96504 Z" id="Path" fill="#63667E"></path>
            <path d="M209,88.5739809 C208.76321,88.910598 208.494109,89.2230308 208.196573,89.5067827 C204.920582,92.6369899 199.103519,91.3410841 194.637958,90.614876 C190.757585,89.9772002 186.966875,88.8759138 183.346379,87.3344189 C180.194951,85.9821693 176.414483,84.3294199 173.580689,86.2701484 C172.490768,87.0088773 171.743394,88.1920956 170.609876,88.8431787 C169.476358,89.4942619 168.031435,89.5380848 166.692389,89.556866 C162.332706,89.556866 157.973023,89.6069493 153.719218,88.6178038 C147.372765,87.1278252 140.808328,83.3778369 134.773281,85.8507006 C130.052367,87.7789083 127.49261,92.9437502 126.215845,97.9082589 C125.593034,100.34356 125.132153,102.91659 123.724598,104.982527 C122.317043,107.048464 119.595355,108.513401 117.278495,107.543037 C113.859258,106.109402 113.35478,100.274696 109.231766,99.9804561 C104.703923,99.6611749 104.759976,104.362746 106.080337,107.762151 C108.035967,112.770483 110.595724,117.778814 110.70783,123 C100.776219,105.119478 101.94887,83.0937434 113.722239,66.3808117 C114.726146,65.7558958 115.511875,64.8326351 115.97059,63.7389168 C116.016724,63.5910079 116.054158,63.4404977 116.082696,63.288167 C116.425243,61.5415113 115.459884,59.7072099 115.403831,57.8791689 C115.185847,53.4154934 119.993955,50.3040674 124.403463,49.7406301 C127.336907,49.3650052 130.33886,49.6529843 133.278532,49.5590781 C134.759252,49.5262941 136.231818,49.3289338 137.669356,48.9705991 C140.14938,48.2236137 142.47163,47.0246362 144.520286,45.4334649 C158.80626,42.0315022 173.856153,44.7456757 186.074535,52.9275672 C198.292917,61.1094587 206.582404,74.0242187 208.962631,88.5865018 L209,88.5739809 Z" id="Path" fill="#000000" opacity="0.1"></path>
            <path d="M210.671302,85.641465 C210.358706,86.8707358 209.707399,87.9896471 208.790152,88.873178 C205.49187,91.9805943 199.635224,90.6879091 195.139277,89.9669885 C191.232252,89.3477522 187.415087,88.2626422 183.770863,86.7352756 C180.59799,85.3990866 176.791798,83.7583707 173.938721,85.6849689 C172.841383,86.4183191 172.088924,87.5929225 170.947693,88.2392651 C169.806462,88.8856077 168.351706,88.9291115 167.003549,88.9415411 C162.6142,88.9726153 158.224851,88.9974746 153.9421,88.0155311 C147.552462,86.5301861 140.943357,82.8137162 134.867243,85.2623602 C130.114205,87.1765287 127.53703,92.3099804 126.251578,97.2383427 C125.624528,99.6559126 125.160511,102.210209 123.743379,104.254889 C122.326246,106.299569 119.586038,107.766269 117.253413,106.80297 C113.810909,105.379773 113.302998,99.5875494 109.151928,99.2954523 C104.593276,98.9784958 104.64971,103.645835 105.979056,107.020489 C108.311681,112.905936 111.484554,118.760308 110.443651,125 C109.409019,125 107.697173,124.962711 106.681352,124.937852 C107.471435,123.601663 105.966515,122.010666 104.467866,121.556983 C102.969217,121.1033 101.219747,121.109515 100.078517,120.028134 C98.9372859,118.946753 98.9310154,117.274963 99.0501548,115.777188 C99.310253,112.575935 100.100457,109.438981 101.389051,106.492228 C102.210486,104.627779 103.2702,102.607958 102.643151,100.656501 C102.266768,99.771949 101.813589,98.921465 101.288723,98.1146341 C99.9844591,95.628701 100.291714,92.5212847 101.407862,89.9545589 C101.88442,88.8607483 102.229298,87.8290861 102.624339,86.8471426 C103.123222,85.4513384 103.845172,84.1440596 104.762579,82.9753018 C106.198523,81.2040745 107.603115,78.5379113 106.016679,76.8909807 C105.615367,76.4745869 106.417991,76.1887046 106.1609,75.6480142 C106.115467,75.5556665 106.083785,75.4572771 106.066843,75.355917 C105.99313,74.7012542 106.15285,74.0416624 106.518319,73.4914673 C106.592367,73.3484911 106.673998,73.2094988 106.762868,73.0750735 C106.834988,72.9330538 106.91669,72.7960166 107.007418,72.6648945 C108.395924,70.3671773 110.241297,68.3732599 112.431399,66.8043074 C113.792097,65.8285786 115.384804,64.8901389 115.924067,63.3115714 C116.551117,61.4471216 115.447509,59.46459 115.353451,57.4944881 C115.133984,53.0633124 119.974809,49.9745406 124.414322,49.4152057 C128.853835,48.8558708 133.456381,49.7818808 137.783025,48.6445664 C143.921843,47.0411396 148.235947,41.6715242 153.81042,38.6573304 C159.990235,35.3823194 167.350044,35.1208195 173.750606,37.9488395 C180.259383,40.8946702 185.169184,46.8484798 191.966404,49.0858196 C194.374276,49.8813181 196.982803,50.1982746 199.152396,51.5158191 C201.660595,53.0446679 203.184327,55.717046 204.48859,58.352135 C206.476338,62.3482724 206.87765,66.3630542 208.25089,70.5953553 C209.341956,73.9513649 210.853147,78.3390367 210.978557,82.2046626 C211.049053,83.3590316 210.945497,84.5173672 210.671302,85.641465 Z" id="Path" fill="#896363"></path>
            <g id="Group" opacity="0.1" transform="translate(99.000000, 56.000000)" fill="#000000">
                <path d="M7.90844444,21.62 C8.11008929,20.8143508 7.93876138,19.9608203 7.44177778,19.2951351 C7.60355556,19.78 6.90044444,20.0597297 7.28622222,20.4637838 C7.59355806,20.7865462 7.80845497,21.1858686 7.90844444,21.62 Z" id="Path"></path>
                <path d="M7.42311111,17.8716216 C7.34978028,18.088582 7.30583488,18.3143688 7.29244444,18.542973 C7.41066667,18.3440541 7.57244444,18.1389189 7.42311111,17.8716216 Z" id="Path"></path>
                <path d="M109.256,31.1245946 C105.976889,34.2327027 100.171556,32.9459459 95.6977778,32.2186486 C91.823563,31.5954784 88.0396194,30.5037654 84.4293333,28.9675676 C81.2746667,27.6248649 77.504,25.9837838 74.6666667,27.9108108 C73.584,28.6443243 72.8373333,29.8191892 71.6986667,30.4656757 C70.56,31.1121622 69.1226667,31.1556757 67.7848889,31.1681081 C63.4293333,31.1681081 59.0737778,31.2240541 54.8177778,30.2356757 C48.4835556,28.7562162 41.9253333,25.0451351 35.896,27.4881081 C31.1795556,29.4089189 28.6222222,34.5372973 27.3466667,39.4667568 C26.7244444,41.8848649 26.2702222,44.4397297 24.8577778,46.4910811 C23.4453333,48.5424324 20.7262222,49.997027 18.4177778,49.0397297 C15.0017778,47.61 14.4977778,41.8227027 10.3786667,41.5305405 C7.16177778,41.3005405 6.26577778,43.6005405 6.48355556,46.1554054 C6.67022222,44.2035135 7.728,42.6991892 10.3786667,42.8856757 C14.4977778,43.1778378 15.0017778,48.9713514 18.4177778,50.3948649 C20.7262222,51.3583784 23.4515556,49.91 24.8577778,47.8462162 C26.264,45.7824324 26.7244444,43.24 27.3466667,40.8281081 C28.6222222,35.8986486 31.1795556,30.7640541 35.896,28.8494595 C41.9253333,26.4002703 48.4835556,30.0927027 54.8177778,31.597027 C59.0488889,32.5854054 63.4417778,32.5543243 67.7848889,32.5232432 C69.1226667,32.5232432 70.5351111,32.4859459 71.6986667,31.827027 C72.8622222,31.1681081 73.5653333,30.0056757 74.6666667,29.2659459 C77.504,27.3451351 81.2746667,28.9862162 84.4293333,30.3227027 C88.0403932,31.8580871 91.8239813,32.9517847 95.6977778,33.58 C100.171556,34.3010811 105.976889,35.6002703 109.256,32.4797297 C111.035556,30.7827027 111.570667,28.3272973 111.452444,25.6418919 C111.352889,27.7740541 110.730667,29.7072973 109.256,31.1245946 Z" id="Path"></path>
                <path d="M16.5822222,0.130540541 C16.5477979,0.440083989 16.5353223,0.751671586 16.5448889,1.06297297 C16.6071111,2.35594595 17.0986667,3.64891892 17.2542222,4.91081081 C17.4844444,3.36297297 16.7688889,1.74675676 16.5822222,0.130540541 Z" id="Path"></path>
                <path d="M3.93866667,44.2345946 C3.9899663,44.420476 4.02945245,44.6094113 4.05688889,44.8002703 C4.15776181,44.1590292 4.11741669,43.5035235 3.93866667,42.8794595 C3.56770546,41.9915381 3.11790962,41.1385831 2.59466667,40.3308108 C2.12719434,39.4112671 1.84997407,38.4070494 1.77955556,37.3781081 C1.65304497,38.863446 1.93488331,40.3551025 2.59466667,41.6921622 C3.11910245,42.4970577 3.56896569,43.3480598 3.93866667,44.2345946 Z" id="Path"></path>
                <path d="M11.6604444,67.2221622 L8.02044444,67.1662162 C8.19245546,67.6112784 8.15119529,68.1105025 7.90844444,68.5213514 C8.93511111,68.5213514 10.64,68.5586486 11.6417778,68.5835135 C11.8158312,67.5195856 11.8763184,66.440202 11.8222222,65.3635135 C11.8080776,65.9858786 11.7540411,66.6066993 11.6604444,67.2221622 Z" id="Path"></path>
                <path d="M5.70577778,63.7845946 C4.21866667,63.337027 2.48888889,63.3308108 1.38133333,62.242973 C0.729350602,61.530458 0.361814017,60.6036557 0.348444444,59.6383784 C0.255111111,61.0681081 0.348444444,62.6097297 1.38133333,63.6043243 C2.48888889,64.6921622 4.21866667,64.6983784 5.70577778,65.1459459 C6.68369395,65.430126 7.50089549,66.1048472 7.96444444,67.0108108 C8.59288889,65.7240541 7.14933333,64.2135135 5.70577778,63.7845946 Z" id="Path"></path>
            </g>
            <path d="M219,401 C218.299916,400.593552 217.587331,400.212116 216.862245,399.849439 C215.368506,399.096127 213.837148,398.419911 212.274198,397.82345 C205.054586,395.072108 197.322414,394.07162 189.483979,394.240453 C186.358606,395.434785 184.327114,396.291453 184.327114,396.291453 L180.351639,397.492039 L179.68906,397.692136 C179.645305,397.254423 179.595299,396.816709 179.551544,396.372743 C179.507789,395.928776 179.457783,395.503569 179.407777,395.065855 C178.00761,381.803136 176.907478,368.177739 176.907478,368.177739 L176.907478,356.409499 L176.907478,355.040081 L176.83247,320.366917 L176.207395,308.936341 L175.91361,303.877623 L175.857353,302.914653 L175.74484,300.93869 L175.682332,299.763116 C175.544364,299.390647 175.427498,299.010692 175.332291,298.625061 C175.288535,298.468735 175.24478,298.293649 175.207276,298.112311 C175.051007,297.487006 174.882237,296.680362 174.707216,295.804935 C173.56333,290.052129 172.131909,280.353648 172.044398,278.383937 C171.931885,275.757656 169.656613,260.049994 169.656613,260.049994 C169.425336,251.402025 162.155719,235.119082 160.32425,232.048835 C158.492782,228.978587 156.448788,210.532089 157.13637,209.537854 C157.492662,209.006345 157.72394,205.86106 157.867707,202.959645 C157.867707,202.628233 157.898961,202.303075 157.911462,201.984169 C158.005223,199.714312 158.048979,197.819638 158.048979,197.819638 L165.199832,196.406448 L167.118811,196.031265 L167.268829,196 L167.331336,196.125061 C167.537611,196.506497 168.181437,197.725842 168.937778,199.326623 C169.025288,199.495455 169.106548,199.676794 169.194058,199.858132 C169.231563,199.945675 169.275318,200.033217 169.319073,200.12076 C170.71924,203.184755 172.338183,207.217972 172.269425,209.537854 C172.156912,213.639855 176.826219,223.544686 176.826219,223.544686 C177.276272,225.820797 187.177454,248.469345 187.177454,248.469345 C187.177454,248.469345 195.259668,270.667673 194.803363,274.313202 C194.347059,277.95873 198.672575,302.089251 198.672575,302.089251 L203.110604,326.907607 C205.267112,331.797493 208.111201,343.065489 208.111201,343.065489 L209.19258,349.456107 L209.398855,350.675451 L212.280448,367.72752 L213.693117,376.081595 C213.693117,376.081595 214.286938,380.52126 215.187045,385.46117 C215.262054,385.905137 215.349565,386.355356 215.437075,386.805576 C215.991613,390.057417 216.779154,393.265165 217.793606,396.404008 C218.296657,397.907702 218.699669,399.443055 219,401 Z" id="Path" fill="#000000" opacity="0.1"></path>
            <path d="M219,401 C218.744073,400.85026 218.488146,400.70052 218.225976,400.55702 C217.526858,400.151475 216.815256,399.770886 216.091169,399.409015 C214.59949,398.657377 213.070243,397.982663 211.509448,397.387528 C204.299792,394.642298 196.578282,393.644033 188.750656,393.81249 C185.629593,395.00417 183.600902,395.858934 183.600902,395.858934 L179.630909,397.056852 C179.580972,396.620111 179.537277,396.18337 179.48734,395.74039 C179.437403,395.29741 179.399951,394.941778 179.362498,394.542472 C177.964261,381.340415 176.865647,367.807682 176.865647,367.807682 L176.865647,355.953282 L176.865647,354.586907 L176.790742,320.078126 L176.166529,309.184557 L176.041687,306.925982 L175.954297,305.397389 L175.841939,303.375902 L175.72958,301.323219 L175.648433,299.844538 L175.648433,299.520102 C175.648433,299.488906 175.648433,299.451472 175.604738,299.414037 C175.486137,299.077122 175.342568,298.565511 175.186515,297.916639 L175.11161,297.604681 C175.080399,297.46118 175.042946,297.305201 175.011736,297.149222 C173.838216,291.827221 172.115389,280.35341 172.021757,278.200901 C171.909399,275.580455 169.637265,259.907691 169.637265,259.907691 C169.406306,251.278936 162.146713,235.03217 160.31777,231.968743 C158.488827,228.905317 156.453894,210.499802 157.134286,209.507776 C157.52754,208.88386 157.758499,205.096692 157.90831,201.970874 C157.90831,201.721307 157.90831,201.47798 157.90831,201.247132 C157.989457,199.319232 158.020668,197.815595 158.020668,197.815595 L164.66229,196.505372 L166.347664,196.174696 L166.609834,196.124783 L167.234046,196 C167.234046,196 168.051765,197.509876 169.031779,199.587516 L169.156621,199.84956 C170.586068,202.931704 172.277684,207.124418 172.227747,209.507776 C172.115389,213.600663 176.778257,223.483489 176.778257,223.483489 C177.227691,225.754542 187.115219,248.352771 187.115219,248.352771 C187.115219,248.352771 195.186288,270.50178 194.730613,274.139209 C194.274938,277.776638 198.594489,301.853547 198.594489,301.853547 L203.026399,326.616764 C205.179932,331.495785 208.0201,342.738747 208.0201,342.738747 L209.025082,348.678425 L209.231072,349.882582 L211.496964,363.309249 L213.588076,375.681499 C213.588076,375.681499 214.212289,380.092583 215.073703,385.040235 C215.15485,385.489454 215.235998,385.938674 215.323388,386.394132 C215.876317,389.653246 216.662768,392.868448 217.676669,396.014913 C218.230048,397.644788 218.672173,399.310307 219,401 Z" id="Path" fill="#63667E"></path>
            <path d="M214,79.9389841 C214,79.9389841 211.617937,83 209.466598,83 C207.315259,83 198.940625,82.6578133 194.575588,81.3015095 C190.210552,79.9452057 168.809402,78.9186455 168.809402,78.9186455 C168.809402,78.9186455 138.503579,79.0306339 137.480913,78.0102953 C136.458247,76.9899567 118.636428,71.5522984 116.82182,71.8944852 C116.441438,71.9691441 115.512309,72.1309051 114.271391,72.3362171 L112.849637,72.5664155 C110.698297,72.9086022 108.010682,73.3067831 105.55379,73.5991972 C102.516972,73.9538271 99.8480642,74.1342529 99,73.823174 L99,71.2163333 C99,71.2163333 102.516972,66.1146402 102.74146,64.6525696 C102.965947,63.190499 105.9217,41.9935864 113.641579,34.4094841 C116.830839,28.3267077 121.992059,23.5018154 128.283158,20.7220148 C138.728066,16.1864852 149.172975,12.3415507 149.172975,12.3415507 L151.000054,12.0802444 L156.892853,11.2092237 C157.071985,11.0313101 157.265997,10.868961 157.47278,10.7239407 C159.10655,9.47962527 164.057749,6.7732393 170.511767,12.5904137 L171.652912,14.4071142 C171.652912,14.4071142 191.513827,19.0484106 200.705346,35.2431754 C209.896866,51.4379402 210.358313,67.2967398 211.038011,74.5448769 C211.038011,74.5448769 210.5828,76.5855542 211.493222,77.3756944 C211.822823,77.6661881 212.137112,77.9735316 212.434823,78.2964878 C212.515888,78.3773683 212.596953,78.4582488 212.671782,78.5453509 C212.933684,78.8066571 213.176879,79.0804065 213.376423,79.3043833 C213.400235,79.3218652 213.421259,79.3428412 213.438781,79.3665991 C213.487473,79.4255303 213.539524,79.4816172 213.594675,79.5345816 L214,79.9389841 Z" id="Path" fill="#FED253"></path>
            <path d="M214,79.8988733 C214,79.8988733 211.621123,83 209.472662,83 C207.3242,83 198.960767,82.6533293 194.601569,81.2792529 C190.242371,79.9051764 168.869847,78.8651644 168.869847,78.8651644 C168.869847,78.8651644 138.604558,78.9786202 137.583261,77.9449113 C136.561963,76.9112024 118.763981,71.4022903 116.9518,71.748961 C116.571927,71.8245982 115.64404,71.9884789 114.404783,72.1964813 L114.080957,70.1794883 L114,69.6815431 C114,69.6815431 148.35048,62.2249722 171.248723,66.1328961 C194.146967,70.04082 211.041973,74.3899612 211.041973,74.3899612 C211.041973,74.3899612 210.587371,76.457379 211.496575,77.2578731 C211.825735,77.5521733 212.139603,77.8635441 212.436916,78.1907323 C212.517873,78.2726727 212.598829,78.354613 212.673558,78.4428565 C212.93511,78.7075868 213.17798,78.9849233 213.377257,79.211835 C213.401038,79.2295461 213.422033,79.2507969 213.439532,79.2748661 C213.488279,79.3344634 213.540254,79.3912786 213.595217,79.4450498 L214,79.8988733 Z" id="Path" fill="#000000" opacity="0.05"></path>
            <path d="M210.646556,84.9377253 C206.412364,85.2600267 198.609265,84.2505545 195.195798,83.7579808 C194.225851,83.6181142 193.274557,83.4478418 192.317045,83.2410824 C188.654873,82.4626943 177.394784,80.2795587 170.555414,81.2890309 C162.292212,82.5052624 138.97618,80.291721 138.97618,80.291721 C138.97618,80.291721 124.601068,77.4153336 118.82491,75.0923314 C116.704705,74.2348882 113.160668,73.9673173 109.635284,74.3929983 C108.736246,74.5026733 107.843798,74.6589765 106.961712,74.8612474 C102.149283,75.9740992 98.0891848,78.5099419 98.7917746,82.8336449 C98.5228076,82.5182938 98.2736458,82.1872764 98.0456615,81.8424162 C97.7409987,77.8896638 98.9969556,75.5362559 100.737886,74.149752 L101.148248,73.9855608 C103.274952,73.3945217 105.439244,72.9415031 107.626997,72.6294626 C107.968965,72.5747322 108.323369,72.526083 108.68399,72.4835149 C114.870511,71.6686398 123.81765,71.486205 131.365827,75.2017922 C131.365827,75.2017922 138.379289,78.4187245 143.13576,78.4187245 C147.892231,78.4187245 186.596845,78.7531882 195.655901,81.295112 C197.45934,81.8047021 199.298427,82.1847722 201.158485,82.4322885 C204.461236,82.8487497 207.817384,82.5391981 210.982306,81.526196 C211.047056,82.6734281 210.933857,83.8236368 210.646556,84.9377253 Z" id="Path" fill="#000000" opacity="0.1"></path>
            <path d="M214,79.8699355 C214,79.8699355 211.617937,83 209.466598,83 C207.315259,83 198.940625,82.6500944 194.575588,81.2631959 C190.210552,79.8762974 168.809402,78.8265806 168.809402,78.8265806 C168.809402,78.8265806 138.503579,78.9410952 137.480913,77.8977403 C136.458247,76.8543855 118.636428,71.2940676 116.82182,71.6439732 C116.441438,71.7203162 115.512309,71.8857261 114.271391,72.0956695 L112.849637,72.3310605 C110.380219,72.3181846 107.92224,72.6739787 105.55379,73.3871392 C102.516972,73.7497686 99.8480642,73.9342643 99,73.6161683 L99,73.088129 C99.6538391,72.7010067 100.335489,72.3649838 101.039096,72.0829456 C105.247029,70.8807739 109.580098,70.1931048 113.947132,70.0344075 C119.390955,69.830826 125.757673,70.4797418 131.351155,73.3553296 C131.351155,73.3553296 138.385099,76.7207852 143.15546,76.7207852 C147.925821,76.7207852 186.743466,77.0643288 195.828977,79.7299732 C197.638534,80.258099 199.482787,80.6535463 201.34763,80.9132903 C205.439597,81.4393697 209.594903,80.8306058 213.376423,79.1510385 C213.400235,79.1689148 213.421259,79.190364 213.438781,79.2146577 C213.487593,79.2748112 213.539638,79.3321565 213.594675,79.3864296 L214,79.8699355 Z" id="Path" fill="#000000" opacity="0.1"></path>
            <path d="M98.798734,82.3984649 C98.798734,82.3984649 91.1867491,76.7509515 101.069851,72.987969 C101.069851,72.987969 118.334082,67.7903114 131.399243,74.2037954 C131.399243,74.2037954 138.437209,77.4074978 143.210298,77.4074978 C147.983387,77.4074978 186.823228,77.74185 195.913935,80.2890062 C197.724361,80.7943048 199.569717,81.1721843 201.435743,81.4197247 C206.272178,81.9910871 211.171326,81.0840004 215.455522,78.8239355 C216.079455,78.4895832 216.640995,78.3193675 216.809457,78.5138997 C217.377236,79.1826042 216.928004,83.0550111 211.930299,83.8270608 C208.030717,84.434974 199.170866,83.2860181 195.445985,82.7571337 C194.478888,82.6173136 193.518031,82.4410188 192.563413,82.2404075 C188.888447,81.4622786 177.589017,79.2798703 170.694555,80.2890062 C162.408722,81.5048325 139.004989,79.2920286 139.004989,79.2920286 C139.004989,79.2920286 124.585893,76.4165993 118.789553,74.0882919 C112.993214,71.7599844 96.6399252,73.7660979 98.798734,82.3984649 Z" id="Path" fill="#FED253"></path>
            <path d="M163,22 C162.371399,21.123409 154.293871,14.8594355 151,12.3270614 L156.940283,11.4748201 C157.120858,11.3007424 157.316433,11.1418936 157.524882,11 C161.843373,15.3890426 163,22 163,22 Z" id="Path" fill="#000000" opacity="0.1"></path>
            <polygon id="Path" fill="#000000" opacity="0.1" points="136.557998 55.8512064 134 60 143.78022 59.6380697 144 55"></polygon>
            <polygon id="Path" fill="#000000" opacity="0.1" points="197 61 198.211314 64.8736264 205 66 202.091514 61.3708791"></polygon>
            <path d="M88,179 C88.6884128,180.144252 111.336562,209.806773 117.317543,208.983164 C123.298523,208.159554 88,179 88,179 Z" id="Path" fill="#000000" opacity="0.1"></path>
            <path d="M163,206 C163,206 168.759076,211.532048 167.915642,213.690734 C167.072207,215.849421 163,206 163,206 Z" id="Path" fill="#000000" opacity="0.1"></path>
            <path d="M103.994401,242 C103.994401,242 99.2246946,264.276266 101.724894,264.984435 C104.225093,265.692604 103.994401,242 103.994401,242 Z" id="Path" fill="#000000" opacity="0.1"></path>
            <path d="M165,329 C165.791991,331.289356 172.377362,346.176457 173.855329,346.975216 C175.333295,347.773975 165,329 165,329 Z" id="Path" fill="#000000" opacity="0.1"></path>
            <path d="M242,269 C241.761502,269.752203 235.895733,274.176577 237.184913,275.793517 C238.474093,277.410457 242,269 242,269 Z" id="Path" fill="#000000" opacity="0.1"></path>
            <path d="M197.383173,310 C197.275109,310.574785 196.182454,322.495322 198.259698,324.788214 C200.336942,327.081105 197.383173,310 197.383173,310 Z" id="Path" fill="#000000" opacity="0.1"></path>
            <path d="M255.889188,371.915772 C254.24035,372.833671 252.535301,373.720349 250.799025,374.569561 C248.925345,375.481216 247.051665,376.349161 245.140512,377.167152 C244.378548,377.498096 243.616585,377.822794 242.860868,378.135005 C241.711677,378.609565 240.574978,379.065392 239.45077,379.502487 C236.034427,380.838748 232.742996,382.000171 229.81381,382.980512 C228.677111,383.361409 227.590377,383.711084 226.57859,384.035783 C221.48218,385.653034 218.097065,386.533467 218.097065,386.533467 C217.323795,386.367968 216.532398,386.302908 215.742474,386.339897 C215.523878,386.339897 215.299037,386.339897 215.06795,386.339897 C214.010211,386.416577 212.957353,386.549979 211.913922,386.739526 C204.937587,387.988368 195.082031,391.49137 189.142466,393.782995 C186.019666,394.975639 183.989846,395.831096 183.989846,395.831096 L180.017645,397.029984 L179.355611,397.229799 C175.052393,398.541083 169.000407,400.401857 166.820693,401.176139 C163.298175,402.424981 132.713474,408.787831 132.713474,408.787831 C129.919347,409.550349 127.06512,410.072602 124.181984,410.348884 C117.077413,411.000602 109.936437,411.163335 102.809543,410.835932 C95.6520856,411.298003 84.072744,409.724463 77.333742,408.662947 L76.2594989,408.494353 C73.6550839,408.069747 72,407.763781 72,407.763781 L72.8743839,406.558648 L90.8055003,381.825333 L90.9116755,381.675472 L107.618654,358.640582 L108.243214,357.803858 L109.760895,355.712047 C109.760895,355.712047 110.672753,354.463205 114.18278,354.382031 C114.594989,354.382031 115.044672,354.382031 115.538075,354.382031 C118.486429,354.618994 121.395188,355.212358 124.200721,356.149142 L125.012649,356.392666 C137.110376,359.858203 155.809701,358.990257 155.809701,358.990257 C155.809701,358.990257 167.445253,357.116995 176.588811,355.993037 L177.269581,355.905618 C180.257483,355.483542 183.265991,355.222988 186.281981,355.125092 C191.853056,355.237487 203.907063,352.283976 203.907063,352.283976 C206.498987,351.728241 207.591967,351.259926 209.053437,350.217143 C209.247051,350.07977 209.453156,349.929909 209.677997,349.76756 C210.302557,349.299244 211.020801,348.724776 211.94515,348.012937 C213.631462,346.720385 215.998544,344.965762 219.720921,342.505543 C220.045692,342.29324 220.3892,342.080937 220.757691,341.881122 C221.126181,341.681308 221.594601,341.412807 222.044284,341.188015 C225.649198,339.481203 229.449926,338.222964 233.361311,337.441489 C236.605893,336.744159 239.89824,336.291223 243.210621,336.086496 L243.704024,336.086496 C253.072423,335.586959 262.640682,337.191721 268.236739,342.45559 C269.215235,343.380641 270.067784,344.430345 270.772452,345.577695 C271.114435,346.12259 271.419086,346.690032 271.68431,347.27612 C272.194798,348.3942 272.57414,349.567592 272.814763,350.772877 C272.860564,350.997669 272.898038,351.22246 272.927184,351.447252 C272.927184,351.515938 272.927184,351.57838 272.927184,351.647067 C272.927184,351.828149 272.964658,352.009231 272.977149,352.190313 C273.476797,359.664632 265.719762,366.420867 255.889188,371.915772 Z" id="Path" fill="#000000" opacity="0.1"></path>
            <path d="M72,406.77169 C72,406.77169 92.2358536,410.516075 102.809712,409.835845 C102.809712,409.835845 122.25237,410.859311 132.713806,407.795156 C132.713806,407.795156 163.317412,401.429701 166.821213,400.181573 C170.325013,398.933445 183.99046,394.839584 183.99046,394.839584 C183.99046,394.839584 210.59686,383.70628 218.097867,385.522306 C218.097867,385.522306 276.994194,370.301382 272.784636,349.738469 C268.575079,329.175555 231.401067,333.837314 219.696749,341.556988 C207.992431,349.276661 209.703735,350.081704 203.895295,351.329832 C203.895295,351.329832 191.841222,354.281655 186.270117,354.169324 C180.699011,354.056992 155.797669,358.032281 155.797669,358.032281 C155.797669,358.032281 136.24259,358.943415 124.194762,355.192789 C112.146934,351.442164 109.754856,354.737222 109.754856,354.737222 L72,406.77169 Z" id="Path" fill="#FFA2A2"></path>
            <path d="M115.997692,353.103286 C116.000769,353.128237 116.000769,353.153471 115.997692,353.178422 C115.954001,353.6438 115.833436,354.098704 115.640908,354.524611 C113.23731,360.422795 99.5918866,376.332865 99.5918866,376.332865 C98.9697845,378.222865 98.2189894,380.068019 97.3447732,381.855369 C95.464564,385.675983 93.2989385,389.349288 90.8663266,392.844024 C87.2604714,398.072515 83.3236195,403.06467 79.0799353,407.789847 L79.0486384,407.789847 C78.508626,408.190593 77.9464791,408.560599 77.3648682,408.898105 C75.8939166,409.774693 73.6843594,410.857905 71.5999897,410.989393 C71.2450657,411.010535 70.8889652,411.000058 70.535897,410.958086 C70.7549749,410.958086 70.9677934,410.907995 71.1618338,410.870427 L70.3981909,410.645019 L69.3528763,410.319429 C67.600253,409.768431 65.862235,409.165255 64.1388221,408.509901 L63.0935076,408.109176 C61.4243426,407.466344 59.7906473,406.77551 58.1924219,406.036671 L57.1471073,405.560809 C55.4779423,404.784403 53.8442471,403.964167 52.2460216,403.100102 C51.6701597,402.799558 51.1005571,402.473968 50.5372139,402.167162 C48.8346656,401.215438 47.1655006,400.217798 45.5297189,399.174241 C43.7937874,398.06807 42.095412,396.913896 40.4345928,395.711718 C39.1827191,393.388761 38.1499232,391.328779 37.58658,390.220521 C36.5600436,388.16054 36.4724124,385.211448 36.5975998,383.07633 C36.5975998,382.857183 36.5975998,382.650559 36.635156,382.450196 C36.7415653,381.110269 36.9043089,380.189852 36.9043089,380.189852 C35.9768196,378.949461 35.1400622,377.643708 34.4005614,376.282774 C33.9757026,375.607113 33.7340893,374.832411 33.6995121,374.034952 C33.727822,373.715021 33.6981352,373.392605 33.6118809,373.083228 C33.1299095,371.104644 31.0580585,367.704736 29.1426916,365.569618 C27.7155556,363.998021 27.6279244,358.124882 27.7656305,353.96109 C27.8470023,351.456553 28.0034865,349.615719 28.0034865,349.615719 C27.7230022,349.434645 27.5131061,349.162799 27.4088465,348.845574 C26.9055366,347.475199 26.5651901,346.050337 26.3948288,344.600384 C26.3948288,344.393759 26.3384945,344.187135 26.3071976,343.974249 C25.906598,341.100293 25.7250763,338.213815 25.7250763,338.213815 C21.0931435,334.838951 18.8898457,329.573163 17.8633092,324.877156 L17.7318625,324.251022 C17.1680979,321.364805 16.9287547,318.424575 17.0182944,315.485143 C17.0182944,315.203383 17.0182944,314.990497 17.0182944,314.859009 C17.0182944,314.727521 17.0182944,314.702476 17.0182944,314.702476 C17.0182944,314.702476 17.6317126,301.134147 19.3467796,295.837052 C19.4156327,295.611644 19.4907451,295.405019 19.5658575,295.210918 C19.6922136,294.878255 19.8560114,294.561059 20.0540883,294.265455 C20.6800251,293.432697 21.1244403,291.8611 21.4937431,290.001481 C21.7503772,288.711645 21.9631957,287.277798 22.1196799,285.850212 C22.2636454,284.660557 22.3763141,283.477163 22.4639452,282.381428 C22.7080606,279.45112 22.783173,277.16573 22.783173,277.16573 L21.6251898,271.455386 C21.305962,269.896312 21.0618466,268.324715 20.8928437,266.753118 C20.8928437,266.546494 20.8427687,266.33987 20.8177313,266.126984 C20.524984,263.224752 20.4726442,260.303274 20.661247,257.392412 C20.661247,257.179527 20.661247,256.972902 20.6988032,256.766278 C21.1875431,250.136243 22.9202962,243.657612 25.8064481,237.669185 L26.1194166,237.043051 C26.5367078,236.208205 26.9748636,235.387969 27.433884,234.582343 C27.7656305,233.987516 28.1161552,233.39895 28.4791986,232.816645 C29.441617,231.257356 30.4863229,229.750416 31.6088829,228.302217 C31.7716265,228.089332 31.9406295,227.882707 32.1096324,227.676083 C34.0627906,225.253871 36.2334073,223.015502 38.5943384,220.98897 C44.9163008,215.554125 50.7187356,213.193599 55.9891241,213.01202 C79.0361197,212.198046 91.9617161,252.971905 94.0523452,260.116096 C94.252645,260.804844 94.3527949,261.180524 94.3527949,261.180524 C94.3527949,261.180524 103.691773,270.528708 100.956429,274.629887 C100.426074,275.532655 100.103215,276.542176 100.011264,277.58524 C99.26014,283.101482 101.413363,292.18669 101.413363,292.18669 C101.413363,292.18669 102.177006,294.691226 104.405341,300.689592 L105.062575,302.442768 C106.458414,306.199573 106.783901,312.504745 105.982702,318.152475 C105.2128,323.562274 103.403842,328.34594 100.505754,329.573163 C94.5781322,332.0777 96.1742712,334.582236 97.5388136,336.642218 C98.34967,338.118858 99.0263133,339.66536 99.5605897,341.263088 C100.418123,343.573524 101.213063,346.002924 101.513513,346.948387 C101.601144,347.211363 101.644959,347.355374 101.644959,347.355374 C102.475228,347.033888 103.337755,346.802969 104.21756,346.666626 C105.337987,346.510093 106.445895,346.622797 106.658714,347.580782 C106.771382,348.094212 107.416097,348.701563 108.323706,349.308913 C111.015234,351.16227 115.997692,353.103286 115.997692,353.103286 Z" id="Path" fill="#000000" opacity="0.1"></path>
            <path d="M115,353.473962 C114.961713,353.948188 114.840979,354.412186 114.643184,354.845262 C112.251889,360.723152 98.5927145,376.599067 98.5927145,376.599067 C97.9678358,378.479571 97.2170469,380.316244 96.3453984,382.096734 C94.8347484,385.168219 93.1264026,388.139323 91.2310327,390.991485 C87.3068853,396.885716 82.959483,402.489439 78.2228911,407.758745 L78.0789126,407.914575 C78.0789126,407.914575 77.5280385,408.332198 76.6516478,408.868252 C75.0856817,409.863556 73.3601396,410.584554 71.549802,411 L70.7860902,410.775605 L69.7406813,410.45148 C67.9878999,409.90296 66.2497251,409.302497 64.5261567,408.65009 L63.4807478,408.251167 C61.8114323,407.611227 60.1775896,406.923499 58.57922,406.187983 L57.5338111,405.714262 C55.8644955,404.941347 54.2306529,404.1248 52.6322832,403.264621 C52.0563693,402.965428 51.4867154,402.641303 50.9233214,402.335877 C49.2206195,401.388433 47.5513039,400.395279 45.9153746,399.356416 C44.1792864,398.25522 42.4807578,397.106237 40.8197888,395.909466 C40.0519036,395.360946 39.292365,394.797882 38.541173,394.220274 C37.696082,392.624579 37.0200092,391.278212 36.6005937,390.442965 C35.5739646,388.392248 35.4863255,385.456419 35.6115242,383.330904 C35.6115242,383.112743 35.6115242,382.907048 35.6490838,382.707586 C35.7555027,381.373685 35.9182609,380.457407 35.9182609,380.457407 C35.9182609,380.457407 35.4112063,379.77799 34.7977328,378.855479 C34.4534365,378.344359 34.0841004,377.752206 33.752324,377.166287 C33.1263306,376.069247 32.6380558,374.959741 32.7319548,374.330189 C32.744649,374.222517 32.744649,374.113736 32.7319548,374.006064 C32.7225525,373.795601 32.6910819,373.586693 32.6380558,373.382745 C32.1560409,371.41306 30.077743,368.028442 28.1622034,365.902927 C26.7349386,364.338398 26.6472995,358.491673 26.7787581,354.346607 C26.7787581,354.134679 26.7787581,353.928984 26.7787581,353.723289 C26.8663972,351.572841 26.9978558,350.020779 26.9978558,350.020779 C26.2904833,349.715353 25.7458691,347.452708 25.3953128,345.034233 L25.3014138,344.410915 C24.9007781,341.549884 24.71924,338.676387 24.71924,338.676387 C20.0868893,335.316702 17.8833927,330.074596 16.8630236,325.399709 C16.152165,322.125491 15.8785371,318.772155 16.0492322,315.426617 C16.0492322,315.326887 16.0492322,315.270788 16.0492322,315.270788 C16.0492322,315.270788 16.5875865,301.694917 18.3028082,296.415412 C18.3716675,296.191017 18.4467867,295.985322 18.5219059,295.792094 C18.6721203,295.468563 18.8590494,295.163226 19.07904,294.882049 C20.0305499,293.560614 20.6628031,290.381691 21.0759588,287.12797 L21.151078,286.504652 C21.6706524,282.141425 21.8146309,277.859228 21.8146309,277.859228 L20.6502833,272.174566 C20.3331133,270.616271 20.0889759,269.055897 19.9178711,267.493446 C19.8865714,267.287751 19.8677916,267.075823 19.8427519,266.870128 C19.5500353,263.980945 19.4976909,261.072611 19.6862535,258.174839 C19.6862535,257.962911 19.6862535,257.757216 19.7300731,257.551521 C20.2158904,250.950805 21.9489459,244.500767 24.8381787,238.540315 C24.9383377,238.328387 25.0384966,238.122692 25.1511754,237.916997 C25.9560477,236.298105 26.8505062,234.724925 27.8304269,233.204711 C28.1684633,232.674891 28.5127597,232.151303 28.8758358,231.633949 C29.4454898,230.811169 30.0401834,230.000856 30.6599168,229.215475 L31.1607115,228.592156 C33.0973432,226.190053 35.2491739,223.968138 37.5896632,221.953817 C44.4755899,216.075927 50.7355234,213.807048 56.3694635,214.012743 C78.5609275,214.804357 91.018195,253.936275 93.0651932,260.904973 C93.2655111,261.590623 93.3656701,261.964614 93.3656701,261.964614 C93.3656701,261.964614 102.711751,271.270755 99.9761598,275.353489 C99.4457573,276.252197 99.1228688,277.257178 99.0309098,278.295551 C98.2734579,283.786985 100.433135,292.831332 100.433135,292.831332 C100.433135,292.831332 101.196847,295.324605 103.425383,301.295993 C103.625701,301.850747 103.844799,302.430433 104.051376,303.041284 C105.447342,306.781194 105.772858,313.058008 104.971587,318.680339 C104.201615,324.072041 102.398754,328.827959 99.4941449,330.049663 C93.5722479,332.542936 95.1622709,335.036209 96.5331964,337.086926 C97.3441259,338.556924 98.0208302,340.096471 98.5551549,341.687014 C99.6381234,344.622843 100.633453,347.7519 100.633453,347.7519 C101.043143,347.594477 101.461082,347.459227 101.885439,347.346743 C102.756315,347.061584 103.678528,346.96593 104.589731,347.06625 C105.107063,347.106179 105.539481,347.4738 105.660179,347.976295 C105.829198,348.724277 107.125004,349.653021 108.696247,350.5319 C110.736417,351.637429 112.841462,352.619887 115,353.473962 Z" id="Path" fill="#CED7E7"></path>
            <path d="M33,293.048582 C35.1446973,292.936072 58.1661017,283.94782 62.9079903,287.016827 C67.6498789,290.085834 97,310 97,310 C97,310 78.6089104,285.766722 62.5856659,280.078746 C46.5624213,274.39077 33,293.048582 33,293.048582 Z" id="Path" fill="#000000" opacity="0.1"></path>
            <path d="M66,330 C66,330 89.4403927,334.751592 93,338 L66,330 Z" id="Path" fill="#000000" opacity="0.1"></path>
            <path d="M61,364 C60.6672226,364.339727 52.3724382,383 53.0379929,383 C53.7035477,383 60.7781484,371.881664 60.7781484,371.881664 L61,364 Z" id="Path" fill="#000000" opacity="0.1"></path>
            <path d="M77,341 C77,341 70.2819091,343.722408 71.0632256,343.9783 C71.844542,344.234192 76.7723724,342.165731 77,341 Z" id="Path" fill="#000000" opacity="0.1"></path>
            <path d="M70,370 C71.2091514,372.516052 75.0757785,380.070795 75.9261707,378.872048 C76.7765629,377.6733 70,370 70,370 Z" id="Path" fill="#000000" opacity="0.1"></path>
            <path d="M155,181.224184 L154.029102,182.619071 C154.029102,182.619071 146.317934,177.133772 143.150068,174.387981 C139.982203,171.64219 132.501312,184.221306 126.607464,187.651974 C120.713617,191.082642 110.749468,192 110.749468,192 C110.749468,192 103.044523,184.221306 103.281023,181.946761 C103.517524,179.672215 99.6588279,178.974772 99.4285509,177.372537 C99.1982739,175.770302 97.8415065,171.196078 96.0304088,168.908966 C95.0719584,167.702577 94.9350369,163.926329 95.0221688,160.640177 C95.6445391,160.514511 96.0304088,160.445395 96.0304088,160.445395 C96.9977438,158.670803 98.2205306,157.050931 99.6588279,155.63869 C101.700203,153.810257 104.868068,142.600895 104.868068,142.600895 C106.679166,136.424437 110.301361,138.252869 110.301361,138.252869 C110.301361,147.633798 119.823627,151.064466 124.578537,154.953813 C129.333447,158.84316 136.814338,168.908966 142.708185,170.96988 C147.544003,172.634948 153.20135,179.075304 155,181.224184 Z" id="Path" fill="#000000" opacity="0.1"></path>
            <path d="M155,180.218765 L154.029606,181.619823 C154.029606,181.619823 146.291332,176.147529 143.125109,173.38311 C139.958886,170.61869 132.481872,183.215646 126.59108,186.64604 C120.700288,190.076433 110.741304,191 110.741304,191 C110.741304,191 103.040353,183.215646 103.276731,180.947566 C103.513109,178.679486 99.6564129,177.975815 99.4262553,176.367426 C99.1960976,174.759036 97.8400335,170.191462 96.0298746,167.904533 C95.0719211,166.698241 94.9350706,162.922295 95.0221573,159.636406 L96.0298746,159.447923 C96.9967082,157.673473 98.2188612,156.05373 99.6564129,154.641603 C101.696729,152.807034 104.862952,141.604853 104.862952,141.604853 C106.673111,135.428889 110.293429,137.250892 110.293429,137.250892 C110.293429,146.63107 119.81076,150.067746 124.563204,153.956781 C129.315649,157.845816 136.792663,167.904533 142.683455,169.965282 C147.547868,171.655347 153.202282,178.070057 155,180.218765 Z" id="Path" fill="#CED7E7"></path>
            <path d="M156,181.25482 C156,181.25482 149.290755,184.667461 144.050916,184.989962 C143.365005,185.019977 142.677627,184.982637 142,184.878552 C142,184.878552 147.783832,180.826774 153.15498,180 L156,181.25482 Z" id="Path" fill="#000000" opacity="0.1"></path>
            <path d="M168.97561,200.334029 C168.97561,200.334029 160.72561,197.033403 158,202 C158.091463,199.720251 158.128049,197.82881 158.128049,197.82881 L167.121951,196 C167.121951,196 167.987805,197.647182 169,199.864301 C168.97561,200.158664 168.97561,200.334029 168.97561,200.334029 Z" id="Path" fill="#000000" opacity="0.1"></path>
            <path d="M142,185.596515 C142,185.596515 152.13125,179.518414 157,180.030649 C162.10625,180.561624 172,180.93643 172,180.93643 C172,180.93643 168.5875,188.669923 169.04375,190.262848 C169.5,191.855773 169.6125,199.589267 169.6125,199.589267 C169.6125,199.589267 159.375,195.610078 157.66875,203 C157.66875,203 152.09375,194.698051 148.3375,192.193098 C145.845064,190.393304 143.698143,188.158616 142,185.596515 Z" id="Path" fill="#63667E"></path>
            <path d="M199.395069,193 C196.441677,193 185.983046,186.315 183.710245,181.944768 C181.437444,177.574536 178.253025,182.400132 175.299632,184.019205 C173.426445,185.056424 166.002378,182.887119 162,181.312318 C164.029287,179.914603 168.524937,175.980761 169.842412,175.03841 C171.428378,173.881026 173.026831,155.230066 173.026831,155.230066 C178.708834,152.238576 184.846645,179.408642 184.846645,179.408642 C184.846645,179.408642 195.536303,182.634139 196.441677,184.936258 C196.616508,185.391622 197.421978,186.201159 198.633306,187.181457 C199.882098,190.369007 200.568933,193 199.395069,193 Z" id="Path" fill="#000000" opacity="0.1"></path>
            <path d="M199.387226,191 C196.395542,191 185.801312,184.317988 183.499044,179.945573 C181.196776,175.573158 177.97107,180.401165 174.979386,182.014719 C173.081912,183.052456 167.054269,181.046586 163,179.483654 C165.055597,178.091568 168.116855,173.991242 169.451412,173.042093 C171.05794,171.890458 172.677117,153.230181 172.677117,153.230181 C178.432788,150.237196 184.650178,177.420836 184.650178,177.420836 C184.650178,177.420836 195.47843,180.647944 196.395542,182.951213 C196.57264,183.406805 197.388554,184.216745 198.615587,185.197533 C199.880569,188.367692 200.57631,191 199.387226,191 Z" id="Path" fill="#CED7E7"></path>
            <path d="M239.500949,390.542937 L338.624349,308.248186 C339.613453,307.416206 340.873791,306.97277 342.168272,307.001295 L379.147793,307.967635 C379.147793,307.967635 381.708684,309.83797 377.951875,313.92777 L284.444905,390.330966 C283.434466,391.153509 282.180377,391.62232 280.875936,391.665138 L240.440151,392.999311 C239.844909,393.017911 239.303332,392.658547 239.091442,392.104372 C238.879551,391.550198 239.04399,390.923201 239.500949,390.542937 Z" id="Path" fill="#6C63FF"></path>
            <path d="M287,380.576643 C287,380.576643 308.515851,411.535143 332.420969,382.739737 C356.326087,353.94433 349.413388,338.815176 342.1647,338.014956 C334.916011,337.214737 294.13047,368.742143 287,380.576643 Z" id="Path" fill="#FFA2A2"></path>
            <path d="M433,33.8843709 C433,33.8843709 460.668613,-19.7279883 493.371833,7.92111394 C493.371833,7.92111394 500.510919,10.5180594 499.970832,18.0547795 C499.970832,18.0547795 497.220732,16.5486751 495.035551,22.3065805 C494.233001,24.3496439 493.191106,26.2907073 491.9316,28.0892777 C490.257659,30.5189732 487.83987,32.341372 485.040831,33.2831687 C485.040831,33.2831687 470.365354,44.2597569 443.180957,35.7933427 C443.180957,35.7933427 435.495576,36.8965797 434.253996,35.9420938 L443.187165,29.4218392 C443.187165,29.4218392 447.72514,36.1466265 454.361386,36.9151736 C454.361386,36.9151736 443.187165,29.9114781 444.465992,28.3929778 C444.726724,28.0830798 449.357818,25.1514444 449.357818,25.1514444 C449.357818,25.1514444 457.297723,36.8098083 467.590422,37.6713248 C467.590422,37.6713248 453.169469,31.1076845 451.102238,24.0358115 L458.346858,20.0009391 C458.346858,20.0009391 466.131565,32.7377482 477.821042,34.1632791 C477.821042,34.1632791 462.98416,26.781508 459.991952,19.2261941 L467.658709,16.2387771 C467.658709,16.2387771 475.499287,28.510739 485.227068,29.6325699 C485.227068,29.6325699 468.949952,19.3749451 469.459,15.6685647 C469.459,15.6685647 476.666373,13.3505274 478.876385,13.6542275 C478.876385,13.6542275 484.705604,22.3313723 490.416873,22.4863213 C490.416873,22.4863213 480.266955,14.4785562 480.937408,13.2451621 C480.937408,13.2451621 491.130781,12.7183354 496.45716,15.1789258 C496.45716,15.1789258 488.883521,10.9705106 480.937408,11.6522862 C480.937408,11.6522862 484.531783,7.43147505 489.218748,6.50178097 C489.218748,6.50178097 483.600598,4.19613962 478.466664,11.8072352 C478.466664,11.8072352 470.539175,12.5323966 469.558327,13.412507 C469.558327,13.412507 473.56863,5.18161536 478.503911,1.67976762 C478.503911,1.67976762 471.147549,2.97514139 467.503511,14.1314705 L459.73122,16.9639384 C459.73122,16.9639384 464.455432,5.80760938 468.620934,2.36154329 C468.620934,2.36154329 461.320442,4.84072753 457.831602,17.8564448 L450.680101,21.7363681 C450.680101,21.7363681 454.013743,11.8196312 457.819187,6.97902393 C457.819187,6.97902393 451.542999,10.7349881 448.668741,22.9201786 L444.199053,26.0625446 C444.199053,26.0625446 446.762916,18.8605144 447.687893,16.8585731 C448.61287,14.8566318 448.147277,14.4413685 448.147277,14.4413685 C445.040229,18.1088097 443.013666,22.5652573 442.293227,27.3145326 C442.293227,27.3145326 433.515256,34.3802077 433,33.8843709 Z" id="Path" fill="#6C63FF" opacity="0.1"></path>
            <path d="M548,63.6406625 C548,63.6406625 560.390809,38.8935678 575.033375,51.6564593 C575.033375,51.6564593 578.23259,52.8529804 577.986497,56.3285892 C577.986497,56.3285892 576.756029,55.6385321 575.777807,58.2974679 C575.423378,59.2392677 574.960715,60.134049 574.399684,60.9627344 C573.650983,62.0813865 572.572492,62.9225957 571.323515,63.3621074 C571.323515,63.3621074 564.746665,68.4267469 552.571187,64.5206436 C552.571187,64.5206436 549.13203,65.0271076 548.57832,64.5902824 L552.57734,61.5768219 C552.57734,61.5768219 554.607611,64.6852444 557.585343,65.0334384 C557.585343,65.0334384 552.589644,61.8047307 553.15566,61.102012 C553.266402,60.9627344 555.33974,59.6079433 555.33974,59.6079433 C555.33974,59.6079433 558.895791,64.9891228 563.510045,65.3879632 C563.510045,65.3879632 557.05009,62.3555103 556.127239,59.0571638 L559.375674,57.2022396 C559.375674,57.2022396 562.857897,63.0835522 568.093537,63.7419553 C568.093537,63.7419553 561.449012,60.3359853 560.095497,56.8477148 L563.528502,55.4676005 C563.528502,55.4676005 567.035335,61.133666 571.39119,61.6527915 C571.39119,61.6527915 564.100669,56.9173536 564.334458,55.2080378 C564.334458,55.2080378 567.558283,54.1381327 568.54881,54.2774103 C568.54881,54.2774103 571.157401,58.2848063 573.716774,58.3481143 C573.716774,58.3481143 569.170196,54.6572582 569.471661,54.0874863 C569.471661,54.0874863 574.036696,53.8469159 576.411498,54.980129 C576.411498,54.980129 573.02156,53.0365736 569.471661,53.3531135 C570.450902,52.2070435 571.733766,51.3797959 573.163064,50.972733 C573.163064,50.972733 570.646757,49.9091587 568.345783,53.4227523 C568.345783,53.4227523 564.795884,53.7582847 564.359068,54.1634559 C564.359068,54.1634559 566.15555,50.3649762 568.36424,48.7506224 C568.36424,48.7506224 565.066586,49.3457175 563.442369,54.4989882 L559.99706,55.8284561 C559.99706,55.8284561 562.107312,50.6815162 563.977623,49.0861548 C563.977623,49.0861548 560.704579,50.2320295 559.141885,56.2336273 L555.942669,58.0189127 C555.942669,58.0189127 557.431535,53.4354139 559.135732,51.2069726 C559.135732,51.2069726 556.324114,52.9416116 555.044427,58.5633614 L553.038765,60.0131145 C553.038765,60.0131145 554.189252,56.6894448 554.601459,55.7651481 C555.013666,54.8408514 554.804486,54.6509274 554.804486,54.6509274 C553.412988,56.3495329 552.50583,58.411499 552.18359,60.6082096 C552.18359,60.6082096 548.215332,63.8685713 548,63.6406625 Z" id="Path" fill="#6C63FF" opacity="0.1"></path>
            <path d="M412,91.6406625 C412,91.6406625 424.37584,66.8935678 439.037585,79.6564593 C439.037585,79.6564593 442.226791,80.8529804 441.98714,84.33492 C441.98714,84.33492 440.758159,83.6385321 439.781119,86.2974679 C439.424913,87.2382267 438.962944,88.1327473 438.40466,88.9627344 C437.648923,90.0868029 436.560242,90.9285693 435.301482,91.3621074 C435.301482,91.3621074 428.738723,96.4267469 416.577955,92.5206436 C416.577955,92.5206436 413.142952,93.0334384 412.589911,92.5902824 L416.5841,89.5768219 C416.5841,89.5768219 418.611919,92.6852444 421.579908,93.0397692 C421.579908,93.0397692 416.590245,89.8047307 417.155576,89.102012 C417.272329,88.9627344 419.343162,87.6079433 419.343162,87.6079433 C419.343162,87.6079433 422.894918,92.9891228 427.497452,93.3879632 C427.497452,93.3879632 421.051446,90.3555103 420.123565,87.0571638 L423.368076,85.2085704 C423.368076,85.2085704 426.852237,91.0835522 432.081552,91.7419553 C432.081552,91.7419553 425.445054,88.3359853 424.093174,84.8477148 L427.522032,83.4676005 C427.522032,83.4676005 431.030773,89.133666 435.381366,89.6527915 C435.381366,89.6527915 428.099653,84.9173536 428.327014,83.2080378 C428.327014,83.2080378 431.55309,82.1381327 432.54242,82.2774103 C432.54242,82.2774103 435.14786,86.2848063 437.704141,86.354445 C437.704141,86.354445 433.163055,82.6572582 433.464156,82.0874863 C433.464156,82.0874863 438.017531,81.8469159 440.395609,82.980129 C440.395609,82.980129 437.003621,81.0365736 433.458011,81.3531135 C434.436069,80.2070435 435.717383,79.3797959 437.144954,78.972733 C437.144954,78.972733 434.637833,77.9091587 432.339638,81.4227523 C432.339638,81.4227523 428.794027,81.7582847 428.357739,82.1634559 C428.357739,82.1634559 430.145907,78.3649762 432.358073,76.7506224 C432.358073,76.7506224 429.064403,77.3457175 427.442148,82.4989882 L423.957987,83.8284561 C423.957987,83.8284561 426.071834,78.6815162 427.933741,77.0924856 C427.933741,77.0924856 424.670796,78.2320295 423.10999,84.2336273 L419.908494,86.0189127 C419.908494,86.0189127 421.401706,81.4354139 423.103845,79.2069726 C423.103845,79.2069726 420.295623,80.9416116 419.011337,86.5633614 L417.008098,88.0131145 C417.008098,88.0131145 418.157196,84.6894448 418.568904,83.7651481 C418.980613,82.8408514 418.777831,82.6509274 418.777831,82.6509274 C417.385262,84.3477429 416.47883,86.4105495 416.160101,88.6082096 C416.160101,88.6082096 412.215072,91.8685713 412,91.6406625 Z" id="Path" fill="#6C63FF" opacity="0.1"></path>
        </g>
    </g>
</svg>