<?xml version="1.0" encoding="UTF-8"?>
<svg width="92px" height="92px" viewBox="0 0 92 92" version="1.1" xmlns="http://www.w3.org/2000/svg" xmlns:xlink="http://www.w3.org/1999/xlink">
    <!-- Generator: Sketch 50.2 (55047) - http://www.bohemiancoding.com/sketch -->
    <title>np_street_516215_A81B2E</title>
    <desc>Created with Sketch.</desc>
    <defs></defs>
    <g id="Page-1" stroke="none" stroke-width="1" fill="none" fill-rule="evenodd">
        <g id="Artboard" transform="translate(-29.000000, -29.000000)" fill="#FFFFFF" fill-rule="nonzero" stroke="#3C5259">
            <g id="np_street_516215_A81B2E" transform="translate(30.000000, 30.000000)">
                <path d="M44.801,51 L41.801,51 C39.5002,56.1016 38.6018,58.6016 41.60178,63.699 L45.00018,63.699 C41.69938,58.6013 42.60178,55.9998 44.80096,51 L44.801,51 Z" id="Shape"></path>
                <path d="M46.898,24.5 C49.398,27.5 49.898,28.8984 49.898,31.8984 L52.398,31.8984 C52.29644,28.8984 51.79644,27.5 49.1988,24.5 L46.898,24.5 Z" id="Shape"></path>
                <path d="M44.602,45.5 L47.5004,45.5 C49.602,41.6992 50.8012,39.8008 51.8988,36 L49.2972,36 C48.1019,39.8008 46.8011,41.6992 44.6019,45.5 L44.602,45.5 Z" id="Shape"></path>
                <path d="M45,0 C20.102,0 0,20.199 0,45 C0,69.898 20.199,90 45,90 C69.898,90 90,69.801 90,45 C90,20.102 69.898,0 45,0 Z M25.699,67.199 C19.699,57 24.699,51.398 30.8982,42.5 C35.7966,34.6016 37.4998,31 32.5974,22.801 L60.1994,22.801 C66.0002,29.1994 68.5002,34.102 64.5978,42.5 C60.3986,53.102 59.0978,58.301 67.0978,67.199 L25.6998,67.199 L25.699,67.199 Z" id="Shape"></path>
            </g>
        </g>
    </g>
</svg>